<?xml version="1.0" encoding="UTF-8" standalone="no"?>
<!-- Created with Inkscape (http://www.inkscape.org/) -->

<svg
   width="1400"
   height="350"
   viewBox="0 0 1400 350"
   version="1.1"
   id="svg1"
   xml:space="preserve"
   xmlns:xlink="http://www.w3.org/1999/xlink"
   xmlns="http://www.w3.org/2000/svg"
   xmlns:svg="http://www.w3.org/2000/svg"><defs
     id="defs1"><linearGradient
       id="linearGradient4"><stop
         style="stop-color:#16d1ff;stop-opacity:1;"
         offset="0"
         id="stop4" /><stop
         style="stop-color:#c33cff;stop-opacity:1;"
         offset="1"
         id="stop5" /></linearGradient><linearGradient
       id="linearGradient2"><stop
         style="stop-color:#16d1ff;stop-opacity:1;"
         offset="0"
         id="stop2" /><stop
         style="stop-color:#c33cff;stop-opacity:1;"
         offset="1"
         id="stop3" /></linearGradient><linearGradient
       xlink:href="#linearGradient2"
       id="linearGradient3"
       x1="3.8347473"
       y1="248.16983"
       x2="1396.1655"
       y2="101.82997"
       gradientUnits="userSpaceOnUse" /><linearGradient
       xlink:href="#linearGradient4"
       id="linearGradient5"
       x1="612.0061"
       y1="181.52875"
       x2="879.151"
       y2="181.52875"
       gradientUnits="userSpaceOnUse"
       gradientTransform="matrix(1.2920269,0,0,1.2920269,-263.30745,-54.83839)" /></defs><g
     id="layer1"><path
       id="rect1"
       style="fill:url(#linearGradient3);stroke-width:13.6096"
       d="M 0.59109986,0 H 1399.4089 C 1399.7364,0 1400,0.26363054 1400,0.59109986 V 349.4089 c 0,0.32747 -0.2636,0.5911 -0.5911,0.5911 H 0.59109986 C 0.26363054,350 0,349.73637 0,349.4089 V 0.59109986 C 0,0.26363054 0.26363054,0 0.59109986,0 Z" /><path
       id="rect7"
       style="fill:#0d0f0e;stroke-width:13.4979"
       d="M 50.583397,10 H 1349.4166 C 1371.8998,10 1390,28.100195 1390,50.583397 V 299.4166 C 1390,321.8998 1371.8998,340 1349.4166,340 H 50.583397 C 28.100195,340 10,321.8998 10,299.4166 V 50.583397 C 10,28.100195 28.100195,10 50.583397,10 Z" /><path
       style="font-size:41.8279px;line-height:1.25;font-family:Manrope;-inkscape-font-specification:Manrope;fill:#f9f9f9;stroke-width:1.0457"
       d="M 572.42521,98.388046 V 68.271958 h 3.07435 v 13.573154 h 16.6475 V 68.271958 h 3.05344 v 30.116088 h -3.05344 V 84.793979 h -16.6475 v 13.594067 z m 29.04946,-26.874425 v -3.450802 h 3.07435 v 3.450802 z m 0,26.874425 V 75.80098 h 3.07435 v 22.587066 z m 17.29577,4.371014 0.18823,-1.52672 q 0.83656,0.0628 1.21301,-0.33462 0.37645,-0.39736 0.4601,-1.066611 0.0837,-0.669247 0.0418,-1.443063 h -1.90317 v -4.412843 h 3.57629 v 5.249401 q 0,1.924086 -0.98296,2.886126 -0.96204,0.96204 -2.59333,0.64833 z m 46.82625,-4.371014 0.0209,-14.82799 q 0,-2.614244 -1.46397,-4.099134 -1.44307,-1.505805 -3.68086,-1.505805 -1.27575,0 -2.48876,0.585591 -1.21301,0.58559 -2.00774,1.882255 -0.77382,1.296665 -0.77382,3.38806 l -1.81951,-0.522849 q -0.0627,-2.426018 0.94113,-4.245531 1.02478,-1.819514 2.80247,-2.823384 1.7986,-1.024783 4.0573,-1.024783 3.40898,0 5.45855,2.112309 2.04956,2.091395 2.04956,5.66768 l -0.0209,15.413581 z m -26.95808,0 V 75.80098 h 2.76064 v 5.563111 h 0.33462 v 17.023955 z m 13.51041,0 0.0209,-14.618851 q 0,-2.697899 -1.44306,-4.245532 -1.42215,-1.568546 -3.76451,-1.568546 -2.34236,0 -3.78543,1.610374 -1.44306,1.58946 -1.44306,4.245532 l -1.84043,-1.003869 q 0,-2.175051 1.02479,-3.889995 1.02478,-1.735858 2.80247,-2.718814 1.77768,-1.003869 4.03639,-1.003869 2.15414,0 3.82725,0.920214 1.69403,0.920213 2.65607,2.676985 0.96204,1.756772 0.96204,4.266446 l -0.0209,15.329925 z m 24.36472,10.038694 4.37101,-11.858207 0.0627,3.513547 -9.89229,-24.2811 h 3.26257 l 8.11462,20.307446 h -1.3385 l 7.4872,-20.307446 h 3.13709 l -12.13009,32.62576 z m 43.5218,-10.038694 V 86.86446 q 0,-1.882256 -0.35553,-3.450802 -0.35554,-1.58946 -1.15027,-2.760641 -0.77382,-1.192095 -2.02866,-1.840428 -1.23392,-0.648332 -3.0116,-0.648332 -1.63129,0 -2.88613,0.564676 -1.23392,0.564677 -2.09139,1.631288 -0.83656,1.045698 -1.27576,2.551502 -0.43919,1.505805 -0.43919,3.429888 l -2.17505,-0.481021 q 0,-3.471715 1.21301,-5.834992 1.21301,-2.363276 3.34623,-3.576285 2.13323,-1.213009 4.89387,-1.213009 2.02865,0 3.53445,0.627418 1.52672,0.627419 2.57242,1.69403 1.06661,1.066612 1.71494,2.446932 0.64834,1.359407 0.94113,2.907039 0.2928,1.526719 0.2928,3.053437 v 12.422886 z m -16.33379,0 V 75.80098 h 2.78155 v 5.563111 h 0.31371 v 17.023955 z m 31.32909,0.627419 q -2.55151,0 -4.28736,-0.920214 -1.71495,-0.920214 -2.57242,-2.446932 -0.85747,-1.526719 -0.85747,-3.325318 0,-1.840428 0.73199,-3.137093 0.7529,-1.317579 2.02865,-2.154137 1.29666,-0.836558 2.99069,-1.275751 1.71495,-0.418279 3.78543,-0.731988 2.09139,-0.334623 4.07822,-0.564676 2.00774,-0.250968 3.51354,-0.481021 l -1.08752,0.669246 q 0.0627,-3.346232 -1.29667,-4.956606 -1.3594,-1.610374 -4.72655,-1.610374 -2.32145,0 -3.93182,1.045697 -1.58946,1.045698 -2.23779,3.304404 l -2.9907,-0.878385 q 0.77382,-3.032523 3.11618,-4.705639 2.34236,-1.673116 6.08596,-1.673116 3.09526,0 5.2494,1.171181 2.17505,1.150267 3.07435,3.346232 0.41828,0.982956 0.54376,2.195965 0.12549,1.213009 0.12549,2.467846 v 14.03326 h -2.73973 v -5.66768 l 0.79473,0.334623 q -1.15027,2.907039 -3.57629,4.433757 -2.42601,1.526719 -5.81407,1.526719 z m 0.35553,-2.656072 q 2.15414,0 3.76451,-0.773816 1.61038,-0.773816 2.59333,-2.112309 0.98296,-1.359407 1.27575,-3.053437 0.25097,-1.087525 0.27189,-2.38419 0.0209,-1.317579 0.0209,-1.965911 l 1.17118,0.606504 q -1.56854,0.20914 -3.40897,0.418279 -1.81952,0.20914 -3.5972,0.481021 -1.75677,0.271881 -3.17892,0.648333 -0.96204,0.271881 -1.86134,0.773816 -0.8993,0.481021 -1.48489,1.296665 -0.56468,0.815644 -0.56468,2.028653 0,0.982955 0.48102,1.903169 0.50193,0.920214 1.58946,1.526719 1.10844,0.606504 2.92795,0.606504 z m 43.35454,2.028653 0.0209,-14.82799 q 0,-2.614244 -1.46398,-4.099134 -1.44306,-1.505805 -3.68085,-1.505805 -1.27575,0 -2.48876,0.585591 -1.21301,0.58559 -2.00774,1.882255 -0.77382,1.296665 -0.77382,3.38806 l -1.81951,-0.522849 q -0.0627,-2.426018 0.94112,-4.245531 1.02479,-1.819514 2.80247,-2.823384 1.7986,-1.024783 4.05731,-1.024783 3.40897,0 5.45854,2.112309 2.04957,2.091395 2.04957,5.66768 l -0.0209,15.413581 z m -26.95808,0 V 75.80098 h 2.76064 v 5.563111 h 0.33463 v 17.023955 z m 13.51041,0 0.0209,-14.618851 q 0,-2.697899 -1.44306,-4.245532 -1.42215,-1.568546 -3.76452,-1.568546 -2.34236,0 -3.78542,1.610374 -1.44306,1.58946 -1.44306,4.245532 l -1.84043,-1.003869 q 0,-2.175051 1.02478,-3.889995 1.02479,-1.735858 2.80247,-2.718814 1.77769,-1.003869 4.03639,-1.003869 2.15414,0 3.82726,0.920214 1.69403,0.920213 2.65607,2.676985 0.96204,1.756772 0.96204,4.266446 l -0.0209,15.329925 z m 31.39174,0.627419 q -3.3044,0 -5.73042,-1.463977 -2.4051,-1.463976 -3.7436,-4.120048 -1.33849,-2.656072 -1.33849,-6.232357 0,-3.701769 1.31758,-6.399669 1.31758,-2.697899 3.70177,-4.161876 2.4051,-1.463976 5.66768,-1.463976 3.34623,0 5.70951,1.547632 2.36328,1.526718 3.57628,4.39193 1.21301,2.865211 1.10844,6.838861 h -3.13709 V 86.86446 q -0.0837,-4.39193 -1.90317,-6.629722 -1.7986,-2.237793 -5.27031,-2.237793 -3.63903,0 -5.58403,2.363276 -1.92408,2.363277 -1.92408,6.734292 0,4.266446 1.92408,6.629722 1.945,2.342363 5.50037,2.342363 2.42602,0 4.22462,-1.10844 1.81951,-1.129353 2.86521,-3.241662 l 2.86521,1.10844 q -1.33849,2.948867 -3.95274,4.580155 -2.59333,1.610374 -5.87682,1.610374 z m -8.63746,-11.06348 v -2.572416 h 17.25401 v 2.572416 z m 32.31199,-16.438364 v -3.450802 h 3.07435 v 3.450802 z m 0,26.874425 V 75.80098 h 3.07435 v 22.587066 z m 17.77682,0.606505 q -3.97365,0 -6.54606,-1.714944 -2.5515,-1.714944 -3.13709,-4.768381 l 3.13709,-0.522848 q 0.50193,1.924083 2.27962,3.07435 1.7986,1.129354 4.43376,1.129354 2.57241,0 4.0573,-1.066612 1.48489,-1.087525 1.48489,-2.948867 0,-1.045697 -0.48102,-1.69403 -0.4601,-0.669246 -1.90317,-1.233923 -1.44306,-0.564677 -4.30827,-1.338493 -3.07435,-0.836558 -4.81021,-1.673116 -1.73586,-0.836558 -2.46785,-1.924083 -0.73198,-1.108439 -0.73198,-2.6979 0,-1.924083 1.08752,-3.367146 1.08753,-1.463976 3.01161,-2.258706 1.92408,-0.815644 4.47559,-0.815644 2.5515,0 4.55924,0.836558 2.02865,0.815644 3.26257,2.300534 1.23393,1.484891 1.46398,3.450802 l -3.13709,0.564677 q -0.31371,-1.986826 -1.98683,-3.137093 -1.6522,-1.171181 -4.2037,-1.213009 -2.40511,-0.06274 -3.91091,0.920214 -1.50581,0.962042 -1.50581,2.572416 0,0.8993 0.54377,1.547632 0.54376,0.627419 1.96591,1.192095 1.44306,0.564677 4.09913,1.233923 3.11618,0.79473 4.89387,1.673116 1.77768,0.878386 2.53059,2.070481 0.7529,1.192095 0.7529,2.948867 0,3.199835 -2.38419,5.040262 -2.36328,1.819514 -6.52516,1.819514 z"
       id="text2"
       aria-label="Hi , my name is" /><path
       style="font-weight:900;font-size:126.99px;line-height:1.25;font-family:'LT Wave Text';-inkscape-font-specification:'LT Wave Text Heavy';fill:url(#linearGradient5);stroke-width:3.17475"
       d="m 557.39069,147.89074 -29.96964,74.92409 h 23.36616 l 5.58756,-15.61977 h 34.03332 l 5.46057,15.61977 h 23.36616 l -29.84265,-75.05108 c -3.04776,-7.6194 -7.49241,-11.17512 -16.00074,-11.17512 -8.50833,0 -12.95298,3.55572 -16.00074,11.30211 z m 5.20659,41.77971 9.52425,-27.04887 c 0.25398,-0.63495 0.63495,-1.14291 1.2699,-1.14291 0.50796,0 1.01592,0.25398 1.2699,1.14291 l 9.52425,27.04887 z m 64.76473,-51.93891 v 65.65382 c 0,9.90522 7.49241,19.42947 20.19141,19.42947 h 47.11329 V 205.4172 h -41.14476 c -3.55572,0 -5.71455,-2.28582 -5.71455,-5.96853 v -61.71713 z m 75.55872,0 v 65.65382 c 0,9.90522 7.49241,19.42947 20.19141,19.42947 h 47.11328 V 205.4172 h -41.27175 c -3.42873,0 -5.58756,-2.28582 -5.58756,-5.96853 V 189.0355 h 45.46242 v -17.52462 h -45.46242 v -16.38171 h 47.62125 v -17.39763 z m 80.00348,0 31.23954,41.27175 -33.0174,43.81154 h 25.14402 l 20.57237,-27.04886 20.44539,27.04886 h 25.27101 l -33.14439,-43.81154 31.23954,-41.27175 h -25.27101 l -18.54054,24.63606 -18.66752,-24.63606 z"
       id="text2-6"
       aria-label="ALEX" /><g
       id="g9"
       transform="translate(-4.3797308)"><path
         style="font-size:35.9726px;line-height:1.25;font-family:Manrope;-inkscape-font-specification:Manrope;fill:#f9f9f9;stroke-width:0.899315"
         d="m 438.83067,287.25342 v -25.90027 h 14.87467 v 2.64398 h -12.23068 v 8.99315 h 10.07233 v 2.626 h -10.07233 v 11.63714 z m 18.11221,0 v -19.42521 h 2.37419 v 4.67644 l -0.46765,-0.61153 q 0.32376,-0.86334 0.84536,-1.5828 0.5216,-0.73743 1.13314,-1.20508 0.75542,-0.66549 1.76266,-1.00723 1.00723,-0.35973 2.03245,-0.41369 1.02522,-0.0719 1.87057,0.14389 v 2.48211 q -1.06119,-0.26979 -2.32023,-0.1259 -1.25904,0.14389 -2.32023,1.00723 -0.97126,0.75543 -1.45689,1.81662 -0.48563,1.0432 -0.64751,2.2303 -0.16188,1.16911 -0.16188,2.32023 v 9.69462 z m 20.72015,0.53959 q -2.89579,0 -4.94623,-1.313 -2.05044,-1.313 -3.1476,-3.63324 -1.09717,-2.32023 -1.09717,-5.32394 0,-3.05767 1.11515,-5.35992 1.11515,-2.30224 3.16559,-3.57927 2.06842,-1.29501 4.91026,-1.29501 2.91378,0 4.96422,1.313 2.06842,1.29501 3.1476,3.61524 1.09717,2.30225 1.09717,5.30596 0,3.05767 -1.09717,5.3779 -1.09716,2.30225 -3.16559,3.59726 -2.06842,1.29502 -4.94623,1.29502 z m 0,-2.53607 q 3.23753,0 4.82033,-2.14037 1.58279,-2.15836 1.58279,-5.59374 0,-3.52531 -1.60078,-5.61173 -1.58279,-2.08641 -4.80234,-2.08641 -2.17634,0 -3.59726,0.98925 -1.40293,0.97126 -2.1044,2.71593 -0.68348,1.72669 -0.68348,3.99296 0,3.50733 1.61877,5.62971 1.61877,2.1044 4.76637,2.1044 z m 27.19526,1.99648 v -9.91045 q 0,-1.61877 -0.30577,-2.96774 -0.30576,-1.36696 -0.98924,-2.37419 -0.6655,-1.02522 -1.74468,-1.5828 -1.06119,-0.55757 -2.59002,-0.55757 -1.40293,0 -2.48211,0.48563 -1.06119,0.48563 -1.79863,1.40293 -0.71945,0.89931 -1.09717,2.19433 -0.37771,1.29501 -0.37771,2.94975 l -1.87057,-0.41369 q 0,-2.98572 1.0432,-5.01817 1.04321,-2.03245 2.87781,-3.07566 1.8346,-1.04321 4.20879,-1.04321 1.74468,0 3.03969,0.53959 1.313,0.53959 2.21231,1.45689 0.9173,0.9173 1.47488,2.1044 0.55758,1.16911 0.80938,2.5001 0.25181,1.313 0.25181,2.626 v 10.68386 z m -14.0473,0 v -19.42521 h 2.39218 v 4.78436 h 0.26979 v 14.64085 z m 31.96165,0 q -1.63676,0.34174 -3.23754,0.26979 -1.58279,-0.0719 -2.84183,-0.68348 -1.24106,-0.61153 -1.88856,-1.90654 -0.52161,-1.07918 -0.57556,-2.17635 -0.036,-1.11515 -0.036,-2.53607 v -17.78845 h 2.626 v 17.68054 q 0,1.22307 0.018,2.05044 0.036,0.80938 0.37771,1.4389 0.64751,1.20508 2.05044,1.4389 1.42092,0.23383 3.50733,-0.10791 z m -12.7343,-17.15893 v -2.26628 h 12.7343 v 2.26628 z m 24.06563,17.69852 q -2.84183,0 -4.92825,-1.25904 -2.06842,-1.25904 -3.21954,-3.54331 -1.15113,-2.28426 -1.15113,-5.35991 0,-3.18358 1.13314,-5.50381 1.13314,-2.32023 3.18358,-3.57927 2.06842,-1.25904 4.87428,-1.25904 2.87781,0 4.91026,1.33098 2.03245,1.313 3.07566,3.77712 1.04321,2.46413 0.95327,5.88152 h -2.69794 v -0.93528 q -0.072,-3.77713 -1.63675,-5.70166 -1.54683,-1.92453 -4.53255,-1.92453 -3.12962,0 -4.80234,2.03245 -1.65474,2.03245 -1.65474,5.79159 0,3.6692 1.65474,5.70165 1.67272,2.01447 4.73039,2.01447 2.08641,0 3.63324,-0.95328 1.5648,-0.97126 2.46412,-2.78787 l 2.46412,0.95327 q -1.15112,2.53607 -3.39941,3.939 -2.2303,1.38495 -5.05415,1.38495 z m -7.42834,-9.51476 v -2.21231 h 14.8387 v 2.21231 z m 33.72424,8.97517 v -9.91045 q 0,-1.61877 -0.30576,-2.96774 -0.30577,-1.36696 -0.98925,-2.37419 -0.66549,-1.02522 -1.74467,-1.5828 -1.06119,-0.55757 -2.59003,-0.55757 -1.40293,0 -2.48211,0.48563 -1.06119,0.48563 -1.79863,1.40293 -0.71945,0.89931 -1.09716,2.19433 -0.37771,1.29501 -0.37771,2.94975 l -1.87058,-0.41369 q 0,-2.98572 1.04321,-5.01817 1.0432,-2.03245 2.8778,-3.07566 1.83461,-1.04321 4.2088,-1.04321 1.74467,0 3.03968,0.53959 1.313,0.53959 2.21232,1.45689 0.9173,0.9173 1.47487,2.1044 0.55758,1.16911 0.80939,2.5001 0.25181,1.313 0.25181,2.626 v 10.68386 z m -14.0473,0 v -19.42521 h 2.39218 v 4.78436 h 0.2698 v 14.64085 z m 28.79599,0.53959 q -2.71593,0 -4.64046,-1.34898 -1.92453,-1.36695 -2.94975,-3.68719 -1.02522,-2.32023 -1.02522,-5.23401 0,-2.89579 1.00723,-5.21603 1.02522,-2.32023 2.93177,-3.6692 1.90654,-1.34897 4.56852,-1.34897 2.73391,0 4.60449,1.33098 1.87057,1.33099 2.82385,3.65122 0.97126,2.30225 0.97126,5.252 0,2.89579 -0.95328,5.23401 -0.95327,2.32024 -2.80586,3.68719 -1.85259,1.34898 -4.53255,1.34898 z m 0.2698,-2.46413 q 2.06842,0 3.4174,-1.00723 1.34897,-1.00723 2.01446,-2.76989 0.66549,-1.78064 0.66549,-4.02893 0,-2.28426 -0.66549,-4.02893 -0.66549,-1.76266 -2.01446,-2.7519 -1.33099,-0.98925 -3.36344,-0.98925 -2.08641,0 -3.45337,1.02522 -1.36696,1.02522 -2.03245,2.78787 -0.64751,1.76266 -0.64751,3.95699 0,2.21231 0.66549,3.99296 0.68348,1.76266 2.03245,2.78787 1.34898,1.02522 3.38143,1.02522 z m 6.09735,1.92454 v -14.62286 h -0.28778 v -11.27741 h 2.66198 v 25.90027 z m 14.60479,0 v -25.90027 h 7.86001 q 0.41369,0 1.40293,0.018 1.00724,0.018 1.92454,0.14389 2.94975,0.41369 4.92824,2.19433 1.9785,1.78065 2.96774,4.53255 0.98925,2.7519 0.98925,6.06138 0,3.30948 -0.98925,6.06139 -0.98924,2.7519 -2.96774,4.53254 -1.97849,1.78065 -4.92824,2.19433 -0.89932,0.10792 -1.92454,0.14389 -1.02522,0.018 -1.40293,0.018 z m 2.73392,-2.53607 h 5.12609 q 0.73744,0 1.5828,-0.036 0.86334,-0.054 1.47487,-0.17987 2.26628,-0.39569 3.65122,-1.8346 1.40293,-1.4389 2.05044,-3.59726 0.64751,-2.17634 0.64751,-4.76637 0,-2.60801 -0.64751,-4.78435 -0.64751,-2.17635 -2.05044,-3.59726 -1.40293,-1.42092 -3.65122,-1.81662 -0.61153,-0.1259 -1.49286,-0.16188 -0.86334,-0.054 -1.56481,-0.054 h -5.12609 z m 29.6414,3.07566 q -2.84184,0 -4.92825,-1.25904 -2.06842,-1.25904 -3.21955,-3.54331 -1.15112,-2.28426 -1.15112,-5.35991 0,-3.18358 1.13314,-5.50381 1.13313,-2.32023 3.18357,-3.57927 2.06843,-1.25904 4.87429,-1.25904 2.87781,0 4.91026,1.33098 2.03245,1.313 3.07566,3.77712 1.0432,2.46413 0.95327,5.88152 h -2.69795 v -0.93528 q -0.0719,-3.77713 -1.63675,-5.70166 -1.54682,-1.92453 -4.53255,-1.92453 -3.12961,0 -4.80234,2.03245 -1.65474,2.03245 -1.65474,5.79159 0,3.6692 1.65474,5.70165 1.67273,2.01447 4.7304,2.01447 2.08641,0 3.63323,-0.95328 1.56481,-0.97126 2.46412,-2.78787 l 2.46413,0.95327 q -1.15113,2.53607 -3.39941,3.939 -2.2303,1.38495 -5.05415,1.38495 z m -7.42835,-9.51476 v -2.21231 h 14.8387 v 2.21231 z m 24.7671,8.97517 -7.05063,-19.42521 h 2.67995 l 5.73763,15.97184 5.70166,-15.97184 h 2.71593 l -7.05063,19.42521 z m 20.52233,0.53959 q -2.84183,0 -4.92825,-1.25904 -2.06842,-1.25904 -3.21954,-3.54331 -1.15113,-2.28426 -1.15113,-5.35991 0,-3.18358 1.13314,-5.50381 1.13314,-2.32023 3.18358,-3.57927 2.06842,-1.25904 4.87428,-1.25904 2.87781,0 4.91026,1.33098 2.03245,1.313 3.07566,3.77712 1.0432,2.46413 0.95327,5.88152 h -2.69794 v -0.93528 q -0.072,-3.77713 -1.63675,-5.70166 -1.54683,-1.92453 -4.53255,-1.92453 -3.12962,0 -4.80234,2.03245 -1.65474,2.03245 -1.65474,5.79159 0,3.6692 1.65474,5.70165 1.67272,2.01447 4.73039,2.01447 2.08641,0 3.63324,-0.95328 1.5648,-0.97126 2.46412,-2.78787 l 2.46412,0.95327 q -1.15112,2.53607 -3.39941,3.939 -2.2303,1.38495 -5.05415,1.38495 z m -7.42834,-9.51476 v -2.21231 h 14.8387 v 2.21231 z m 20.59428,8.97517 v -26.43986 h 2.64399 v 26.43986 z m 16.15168,0.53959 q -2.89579,0 -4.94623,-1.313 -2.05044,-1.313 -3.14761,-3.63324 -1.09716,-2.32023 -1.09716,-5.32394 0,-3.05767 1.11515,-5.35992 1.11515,-2.30224 3.16559,-3.57927 2.06842,-1.29501 4.91026,-1.29501 2.91378,0 4.96422,1.313 2.06842,1.29501 3.1476,3.61524 1.09717,2.30225 1.09717,5.30596 0,3.05767 -1.09717,5.3779 -1.09716,2.30225 -3.16559,3.59726 -2.06842,1.29502 -4.94623,1.29502 z m 0,-2.53607 q 3.23753,0 4.82033,-2.14037 1.58279,-2.15836 1.58279,-5.59374 0,-3.52531 -1.60078,-5.61173 -1.58279,-2.08641 -4.80234,-2.08641 -2.17634,0 -3.59726,0.98925 -1.40293,0.97126 -2.1044,2.71593 -0.68348,1.72669 -0.68348,3.99296 0,3.50733 1.61877,5.62971 1.61877,2.1044 4.76637,2.1044 z m 21.8893,2.53607 q -2.67995,0 -4.53254,-1.34898 -1.85259,-1.36695 -2.80587,-3.68719 -0.95327,-2.33822 -0.95327,-5.23401 0,-2.94975 0.95327,-5.252 0.97126,-2.32023 2.84184,-3.65122 1.87058,-1.33098 4.60449,-1.33098 2.66198,0 4.56852,1.34897 1.90655,1.34897 2.91378,3.6692 1.02522,2.32024 1.02522,5.21603 0,2.91378 -1.02522,5.23401 -1.02522,2.32024 -2.94975,3.68719 -1.92453,1.34898 -4.64047,1.34898 z m -8.74134,8.09383 v -28.05863 h 2.37419 v 14.62287 h 0.28779 v 13.43576 z m 8.47155,-10.55796 q 2.03245,0 3.38142,-1.02522 1.34898,-1.02521 2.01447,-2.78787 0.68348,-1.78065 0.68348,-3.99296 0,-2.19433 -0.66549,-3.95699 -0.6655,-1.76265 -2.03246,-2.78787 -1.34897,-1.02522 -3.43538,-1.02522 -2.03245,0 -3.38142,0.98925 -1.33099,0.98924 -1.99648,2.7519 -0.6655,1.74467 -0.6655,4.02893 0,2.24829 0.6655,4.02893 0.66549,1.76266 2.01446,2.76989 1.34898,1.00723 3.4174,1.00723 z m 21.06192,2.46413 q -2.84183,0 -4.92824,-1.25904 -2.06843,-1.25904 -3.21955,-3.54331 -1.15112,-2.28426 -1.15112,-5.35991 0,-3.18358 1.13313,-5.50381 1.13314,-2.32023 3.18358,-3.57927 2.06842,-1.25904 4.87429,-1.25904 2.8778,0 4.91026,1.33098 2.03245,1.313 3.07565,3.77712 1.04321,2.46413 0.95328,5.88152 h -2.69795 v -0.93528 q -0.0719,-3.77713 -1.63675,-5.70166 -1.54682,-1.92453 -4.53255,-1.92453 -3.12961,0 -4.80234,2.03245 -1.65474,2.03245 -1.65474,5.79159 0,3.6692 1.65474,5.70165 1.67273,2.01447 4.7304,2.01447 2.08641,0 3.63323,-0.95328 1.56481,-0.97126 2.46412,-2.78787 l 2.46413,0.95327 q -1.15113,2.53607 -3.39942,3.939 -2.2303,1.38495 -5.05415,1.38495 z m -7.42834,-9.51476 v -2.21231 h 14.8387 v 2.21231 z m 20.23458,8.97517 v -19.42521 h 2.37419 v 4.67644 l -0.46765,-0.61153 q 0.32376,-0.86334 0.84536,-1.5828 0.5216,-0.73743 1.13314,-1.20508 0.75542,-0.66549 1.76265,-1.00723 1.00724,-0.35973 2.03246,-0.41369 1.02521,-0.0719 1.87057,0.14389 v 2.48211 q -1.06119,-0.26979 -2.32023,-0.1259 -1.25904,0.14389 -2.32023,1.00723 -0.97126,0.75543 -1.45689,1.81662 -0.48563,1.0432 -0.64751,2.2303 -0.16188,1.16911 -0.16188,2.32023 v 9.69462 z m 18.3639,0 8.92121,-25.90027 h 3.50733 l 8.9212,25.90027 h -2.7519 l -8.47155,-24.4254 h 1.0432 l -8.41758,24.4254 z m 3.97497,-6.27722 v -2.48211 h 13.38181 v 2.48211 z m 28.14853,6.81681 q -2.71593,0 -4.64047,-1.34898 -1.92453,-1.36695 -2.94975,-3.68719 -1.02522,-2.32023 -1.02522,-5.23401 0,-2.89579 1.00723,-5.21603 1.02522,-2.32023 2.93177,-3.6692 1.90655,-1.34897 4.56852,-1.34897 2.73392,0 4.60449,1.33098 1.87058,1.33099 2.82385,3.65122 0.97126,2.30225 0.97126,5.252 0,2.89579 -0.95327,5.23401 -0.95328,2.32024 -2.80587,3.68719 -1.85258,1.34898 -4.53254,1.34898 z m 0.26979,-2.46413 q 2.06843,0 3.4174,-1.00723 1.34897,-1.00723 2.01446,-2.76989 0.6655,-1.78064 0.6655,-4.02893 0,-2.28426 -0.6655,-4.02893 -0.66549,-1.76266 -2.01446,-2.7519 -1.33099,-0.98925 -3.36344,-0.98925 -2.08641,0 -3.45337,1.02522 -1.36696,1.02522 -2.03245,2.78787 -0.64751,1.76266 -0.64751,3.95699 0,2.21231 0.6655,3.99296 0.68347,1.76266 2.03245,2.78787 1.34897,1.02522 3.38142,1.02522 z m 6.09736,1.92454 v -14.62286 h -0.28778 v -11.27741 h 2.66197 v 25.90027 z m 14.94657,0.53959 q -2.71593,0 -4.64047,-1.34898 -1.92453,-1.36695 -2.94975,-3.68719 -1.02522,-2.32023 -1.02522,-5.23401 0,-2.89579 1.00723,-5.21603 1.02522,-2.32023 2.93177,-3.6692 1.90655,-1.34897 4.56852,-1.34897 2.73392,0 4.60449,1.33098 1.87058,1.33099 2.82385,3.65122 0.97126,2.30225 0.97126,5.252 0,2.89579 -0.95327,5.23401 -0.95328,2.32024 -2.80587,3.68719 -1.85258,1.34898 -4.53254,1.34898 z m 0.26979,-2.46413 q 2.06843,0 3.4174,-1.00723 1.34897,-1.00723 2.01446,-2.76989 0.6655,-1.78064 0.6655,-4.02893 0,-2.28426 -0.6655,-4.02893 -0.66549,-1.76266 -2.01446,-2.7519 -1.33099,-0.98925 -3.36344,-0.98925 -2.08641,0 -3.45337,1.02522 -1.36696,1.02522 -2.03245,2.78787 -0.64751,1.76266 -0.64751,3.95699 0,2.21231 0.6655,3.99296 0.68348,1.76266 2.03245,2.78787 1.34897,1.02522 3.38142,1.02522 z m 6.09736,1.92454 v -14.62286 h -0.28778 v -11.27741 h 2.66197 v 25.90027 z m 7.77003,-23.1124 v -2.96774 h 2.64399 v 2.96774 z m 0,23.1124 v -19.42521 h 2.64399 v 19.42521 z m 16.09774,0.53959 q -2.93177,0 -4.96422,-1.313 -2.03245,-1.313 -3.09364,-3.61525 -1.04321,-2.32023 -1.07918,-5.32394 0.036,-3.05767 1.11515,-5.35992 1.07918,-2.32023 3.11163,-3.59726 2.03245,-1.29501 4.92824,-1.29501 2.94976,0 5.1261,1.4389 2.19433,1.4389 3.00371,3.939 l -2.59003,0.82737 q -0.68347,-1.74467 -2.17634,-2.69795 -1.47487,-0.97126 -3.38142,-0.97126 -2.14037,0 -3.5433,0.98925 -1.40293,0.97126 -2.08641,2.71593 -0.68348,1.74467 -0.70147,4.01095 0.036,3.48934 1.61877,5.61172 1.58279,2.1044 4.71241,2.1044 1.97849,0 3.36344,-0.89932 1.40293,-0.9173 2.12238,-2.66197 l 2.66197,0.7914 q -1.07918,2.59003 -3.16559,3.95698 -2.08641,1.34898 -4.9822,1.34898 z m 22.42888,-0.53959 q -1.63676,0.34174 -3.23754,0.26979 -1.58279,-0.0719 -2.84183,-0.68348 -1.24106,-0.61153 -1.88856,-1.90654 -0.52161,-1.07918 -0.57557,-2.17635 -0.036,-1.11515 -0.036,-2.53607 v -17.78845 h 2.626 v 17.68054 q 0,1.22307 0.018,2.05044 0.036,0.80938 0.37771,1.4389 0.64751,1.20508 2.05044,1.4389 1.42092,0.23383 3.50733,-0.10791 z m -12.7343,-17.15893 v -2.26628 h 12.7343 v 2.26628 z m 24.06562,17.69852 q -2.84183,0 -4.92824,-1.25904 -2.06843,-1.25904 -3.21955,-3.54331 -1.15112,-2.28426 -1.15112,-5.35991 0,-3.18358 1.13313,-5.50381 1.13314,-2.32023 3.18358,-3.57927 2.06842,-1.25904 4.87428,-1.25904 2.87781,0 4.91026,1.33098 2.03246,1.313 3.07566,3.77712 1.04321,2.46413 0.95328,5.88152 h -2.69795 v -0.93528 q -0.0719,-3.77713 -1.63675,-5.70166 -1.54682,-1.92453 -4.53255,-1.92453 -3.12962,0 -4.80234,2.03245 -1.65474,2.03245 -1.65474,5.79159 0,3.6692 1.65474,5.70165 1.67272,2.01447 4.73039,2.01447 2.08642,0 3.63324,-0.95328 1.56481,-0.97126 2.46412,-2.78787 l 2.46412,0.95327 q -1.15112,2.53607 -3.39941,3.939 -2.2303,1.38495 -5.05415,1.38495 z m -7.42834,-9.51476 v -2.21231 h 14.8387 v 2.21231 z m 27.77083,9.51476 q -2.71593,0 -4.64046,-1.34898 -1.92454,-1.36695 -2.94975,-3.68719 -1.02522,-2.32023 -1.02522,-5.23401 0,-2.89579 1.00723,-5.21603 1.02522,-2.32023 2.93177,-3.6692 1.90654,-1.34897 4.56852,-1.34897 2.73391,0 4.60449,1.33098 1.87057,1.33099 2.82385,3.65122 0.97126,2.30225 0.97126,5.252 0,2.89579 -0.95328,5.23401 -0.95327,2.32024 -2.80586,3.68719 -1.85259,1.34898 -4.53255,1.34898 z m 0.2698,-2.46413 q 2.06842,0 3.41739,-1.00723 1.34898,-1.00723 2.01447,-2.76989 0.66549,-1.78064 0.66549,-4.02893 0,-2.28426 -0.66549,-4.02893 -0.66549,-1.76266 -2.01447,-2.7519 -1.33098,-0.98925 -3.36343,-0.98925 -2.08641,0 -3.45337,1.02522 -1.36696,1.02522 -2.03245,2.78787 -0.64751,1.76266 -0.64751,3.95699 0,2.21231 0.66549,3.99296 0.68348,1.76266 2.03245,2.78787 1.34898,1.02522 3.38143,1.02522 z m 6.09735,1.92454 v -14.62286 h -0.28778 v -11.27741 h 2.66198 v 25.90027 z m 25.18072,0 q -1.63676,0.34174 -3.23754,0.26979 -1.58279,-0.0719 -2.84183,-0.68348 -1.24106,-0.61153 -1.88856,-1.90654 -0.52161,-1.07918 -0.57557,-2.17635 -0.036,-1.11515 -0.036,-2.53607 v -17.78845 h 2.626 v 17.68054 q 0,1.22307 0.018,2.05044 0.036,0.80938 0.37771,1.4389 0.64751,1.20508 2.05044,1.4389 1.42092,0.23383 3.50733,-0.10791 z m -12.7343,-17.15893 v -2.26628 h 12.7343 v 2.26628 z m 23.95773,17.69852 q -2.89579,0 -4.94623,-1.313 -2.05044,-1.313 -3.1476,-3.63324 -1.09716,-2.32023 -1.09716,-5.32394 0,-3.05767 1.11515,-5.35992 1.11515,-2.30224 3.16559,-3.57927 2.06842,-1.29501 4.91025,-1.29501 2.91379,0 4.96422,1.313 2.06843,1.29501 3.14761,3.61524 1.09716,2.30225 1.09716,5.30596 0,3.05767 -1.09716,5.3779 -1.09717,2.30225 -3.16559,3.59726 -2.06843,1.29502 -4.94624,1.29502 z m 0,-2.53607 q 3.23754,0 4.82033,-2.14037 1.5828,-2.15836 1.5828,-5.59374 0,-3.52531 -1.60078,-5.61173 -1.5828,-2.08641 -4.80235,-2.08641 -2.17634,0 -3.59726,0.98925 -1.40293,0.97126 -2.10439,2.71593 -0.68348,1.72669 -0.68348,3.99296 0,3.50733 1.61877,5.62971 1.61876,2.1044 4.76636,2.1044 z m 83.47398,2.53607 q -2.1943,0 -3.6872,-0.7914 -1.4749,-0.7914 -2.2123,-2.1044 -0.7374,-1.313 -0.7374,-2.85982 0,-1.58279 0.6295,-2.69794 0.6475,-1.13314 1.7447,-1.85259 1.1151,-0.71945 2.572,-1.09717 1.4749,-0.35972 3.2555,-0.62952 1.7987,-0.28778 3.5074,-0.48563 1.7266,-0.21583 3.0217,-0.41368 l -0.9353,0.57556 q 0.054,-2.87781 -1.1152,-4.26275 -1.1691,-1.38495 -4.0649,-1.38495 -1.9965,0 -3.3814,0.89932 -1.367,0.89931 -1.9245,2.84183 l -2.5721,-0.75542 q 0.6655,-2.60802 2.68,-4.04692 2.0144,-1.4389 5.234,-1.4389 2.662,0 4.5145,1.00723 1.8706,0.98924 2.644,2.87781 0.3598,0.84535 0.4677,1.88856 0.1079,1.0432 0.1079,2.12238 v 12.06881 h -2.3562 v -4.87429 l 0.6835,0.28778 q -0.9893,2.5001 -3.0757,3.8131 -2.0864,1.313 -5.0002,1.313 z m 0.3058,-2.28426 q 1.8526,0 3.2375,-0.6655 1.385,-0.66549 2.2303,-1.81661 0.8454,-1.16911 1.0972,-2.626 0.2158,-0.93529 0.2338,-2.05044 0.018,-1.13314 0.018,-1.69071 l 1.0072,0.5216 q -1.3489,0.17986 -2.9317,0.35973 -1.5649,0.17986 -3.0937,0.41368 -1.5108,0.23382 -2.7339,0.55758 -0.8274,0.23382 -1.6008,0.66549 -0.7734,0.41368 -1.277,1.11515 -0.4856,0.70147 -0.4856,1.74467 0,0.84536 0.4136,1.63675 0.4317,0.7914 1.367,1.313 0.9533,0.52161 2.5181,0.52161 z m 28.1485,1.74467 v -9.91045 q 0,-1.61877 -0.3058,-2.96774 -0.3057,-1.36696 -0.9892,-2.37419 -0.6655,-1.02522 -1.7447,-1.5828 -1.0612,-0.55757 -2.59,-0.55757 -1.403,0 -2.4821,0.48563 -1.0612,0.48563 -1.7987,1.40293 -0.7194,0.89931 -1.0971,2.19433 -0.3777,1.29501 -0.3777,2.94975 l -1.8706,-0.41369 q 0,-2.98572 1.0432,-5.01817 1.0432,-2.03245 2.8778,-3.07566 1.8346,-1.04321 4.2088,-1.04321 1.7447,0 3.0397,0.53959 1.313,0.53959 2.2123,1.45689 0.9173,0.9173 1.4749,2.1044 0.5575,1.16911 0.8094,2.5001 0.2518,1.313 0.2518,2.626 v 10.68386 z m -14.0473,0 v -19.42521 h 2.3922 v 4.78436 h 0.2698 v 14.64085 z m 28.796,0.53959 q -2.7159,0 -4.6405,-1.34898 -1.9245,-1.36695 -2.9497,-3.68719 -1.0252,-2.32023 -1.0252,-5.23401 0,-2.89579 1.0072,-5.21603 1.0252,-2.32023 2.9318,-3.6692 1.9065,-1.34897 4.5685,-1.34897 2.7339,0 4.6045,1.33098 1.8705,1.33099 2.8238,3.65122 0.9713,2.30225 0.9713,5.252 0,2.89579 -0.9533,5.23401 -0.9533,2.32024 -2.8059,3.68719 -1.8525,1.34898 -4.5325,1.34898 z m 0.2698,-2.46413 q 2.0684,0 3.4174,-1.00723 1.349,-1.00723 2.0145,-2.76989 0.6654,-1.78064 0.6654,-4.02893 0,-2.28426 -0.6654,-4.02893 -0.6655,-1.76266 -2.0145,-2.7519 -1.331,-0.98925 -3.3635,-0.98925 -2.0864,0 -3.4533,1.02522 -1.367,1.02522 -2.0325,2.78787 -0.6475,1.76266 -0.6475,3.95699 0,2.21231 0.6655,3.99296 0.6835,1.76266 2.0325,2.78787 1.3489,1.02522 3.3814,1.02522 z m 6.0973,1.92454 v -14.62286 h -0.2877 v -11.27741 h 2.6619 v 25.90027 z m 25.0908,0.53959 q -3.867,0 -6.529,-1.7087 -2.662,-1.72669 -4.0289,-4.76637 -1.367,-3.03969 -1.367,-7.01466 0,-3.97497 1.367,-7.01465 1.3669,-3.03969 4.0289,-4.74839 2.662,-1.72668 6.529,-1.72668 4.5146,0 7.3744,2.32023 2.8598,2.30225 3.921,6.18729 l -2.6979,0.70146 q -0.8274,-3.07565 -2.9678,-4.87428 -2.1403,-1.79863 -5.6297,-1.79863 -3.0397,0 -5.0541,1.38494 -2.0145,1.38495 -3.0397,3.86706 -1.0072,2.46412 -1.0432,5.70165 -0.018,3.23754 0.9892,5.70166 1.0253,2.46412 3.0577,3.86705 2.0504,1.38495 5.0901,1.38495 3.4894,0 5.6297,-1.79863 2.1404,-1.81662 2.9678,-4.87429 l 2.6979,0.70147 q -1.0612,3.88504 -3.921,6.20527 -2.8598,2.30225 -7.3744,2.30225 z m 20.8102,0 q -2.1943,0 -3.6872,-0.7914 -1.4749,-0.7914 -2.2123,-2.1044 -0.7375,-1.313 -0.7375,-2.85982 0,-1.58279 0.6296,-2.69794 0.6475,-1.13314 1.7446,-1.85259 1.1152,-0.71945 2.5721,-1.09717 1.4748,-0.35972 3.2555,-0.62952 1.7986,-0.28778 3.5073,-0.48563 1.7267,-0.21583 3.0217,-0.41368 l -0.9353,0.57556 q 0.054,-2.87781 -1.1151,-4.26275 -1.1691,-1.38495 -4.0649,-1.38495 -1.9965,0 -3.3814,0.89932 -1.367,0.89931 -1.9246,2.84183 l -2.572,-0.75542 q 0.6655,-2.60802 2.6799,-4.04692 2.0145,-1.4389 5.2341,-1.4389 2.6619,0 4.5145,1.00723 1.8706,0.98924 2.644,2.87781 0.3597,0.84535 0.4676,1.88856 0.108,1.0432 0.108,2.12238 v 12.06881 h -2.3562 v -4.87429 l 0.6834,0.28778 q -0.9892,2.5001 -3.0756,3.8131 -2.0864,1.313 -5.0002,1.313 z m 0.3058,-2.28426 q 1.8525,0 3.2375,-0.6655 1.3849,-0.66549 2.2303,-1.81661 0.8453,-1.16911 1.0972,-2.626 0.2158,-0.93529 0.2338,-2.05044 0.018,-1.13314 0.018,-1.69071 l 1.0072,0.5216 q -1.349,0.17986 -2.9318,0.35973 -1.5648,0.17986 -3.0936,0.41368 -1.5109,0.23382 -2.7339,0.55758 -0.8274,0.23382 -1.6008,0.66549 -0.7734,0.41368 -1.277,1.11515 -0.4857,0.70147 -0.4857,1.74467 0,0.84536 0.4137,1.63675 0.4317,0.7914 1.367,1.313 0.9532,0.52161 2.5181,0.52161 z m 16.0437,1.74467 v -20.86411 q 0,-0.75542 0.072,-1.49286 0.09,-0.73744 0.3418,-1.40293 0.2518,-0.68348 0.7914,-1.25904 0.5935,-0.64751 1.295,-0.93529 0.7014,-0.30577 1.4569,-0.3957 0.7734,-0.0899 1.5108,-0.0899 h 2.4821 v 2.2303 h -2.3022 q -1.5109,0 -2.2663,0.73744 -0.7374,0.73744 -0.7374,2.32023 v 21.15189 z m -3.3635,-17.15893 v -2.26628 h 11.3134 v 2.26628 z m 14.443,17.15893 v -20.86411 q 0,-0.75542 0.072,-1.49286 0.09,-0.73744 0.3417,-1.40293 0.2518,-0.68348 0.7914,-1.25904 0.5936,-0.64751 1.295,-0.93529 0.7015,-0.30577 1.4569,-0.3957 0.7734,-0.0899 1.5109,-0.0899 h 2.4821 v 2.2303 h -2.3023 q -1.5108,0 -2.2662,0.73744 -0.7375,0.73744 -0.7375,2.32023 v 21.15189 z m -3.3634,-17.15893 v -2.26628 h 11.3134 v 2.26628 z m 21.6914,17.69852 q -2.8418,0 -4.9283,-1.25904 -2.0684,-1.25904 -3.2195,-3.54331 -1.1511,-2.28426 -1.1511,-5.35991 0,-3.18358 1.1331,-5.50381 1.1331,-2.32023 3.1836,-3.57927 2.0684,-1.25904 4.8743,-1.25904 2.8778,0 4.9102,1.33098 2.0325,1.313 3.0757,3.77712 1.0432,2.46413 0.9533,5.88152 h -2.698 v -0.93528 q -0.072,-3.77713 -1.6367,-5.70166 -1.5469,-1.92453 -4.5326,-1.92453 -3.1296,0 -4.8023,2.03245 -1.6548,2.03245 -1.6548,5.79159 0,3.6692 1.6548,5.70165 1.6727,2.01447 4.7304,2.01447 2.0864,0 3.6332,-0.95328 1.5648,-0.97126 2.4641,-2.78787 l 2.4642,0.95327 q -1.1512,2.53607 -3.3995,3.939 -2.2303,1.38495 -5.0541,1.38495 z m -7.4284,-9.51476 v -2.21231 h 14.8387 v 2.21231 z m 20.5943,-14.13723 v -2.96774 h 2.644 v 2.96774 z m 0,23.1124 v -19.42521 h 2.644 v 19.42521 z m 22.0692,0 v -9.91045 q 0,-1.61877 -0.3058,-2.96774 -0.3057,-1.36696 -0.9892,-2.37419 -0.6655,-1.02522 -1.7447,-1.5828 -1.0612,-0.55757 -2.59,-0.55757 -1.4029,0 -2.4821,0.48563 -1.0612,0.48563 -1.7986,1.40293 -0.7195,0.89931 -1.0972,2.19433 -0.3777,1.29501 -0.3777,2.94975 l -1.8706,-0.41369 q 0,-2.98572 1.0432,-5.01817 1.0432,-2.03245 2.8778,-3.07566 1.8346,-1.04321 4.2088,-1.04321 1.7447,0 3.0397,0.53959 1.313,0.53959 2.2123,1.45689 0.9173,0.9173 1.4749,2.1044 0.5576,1.16911 0.8094,2.5001 0.2518,1.313 0.2518,2.626 v 10.68386 z m -14.0473,0 v -19.42521 h 2.3922 v 4.78436 h 0.2698 v 14.64085 z m 29.4795,0.53959 q -2.8418,0 -4.9283,-1.25904 -2.0684,-1.25904 -3.2195,-3.54331 -1.1511,-2.28426 -1.1511,-5.35991 0,-3.18358 1.1331,-5.50381 1.1331,-2.32023 3.1836,-3.57927 2.0684,-1.25904 4.8743,-1.25904 2.8778,0 4.9102,1.33098 2.0325,1.313 3.0757,3.77712 1.0432,2.46413 0.9533,5.88152 h -2.698 v -0.93528 q -0.072,-3.77713 -1.6367,-5.70166 -1.5469,-1.92453 -4.5326,-1.92453 -3.1296,0 -4.8023,2.03245 -1.6548,2.03245 -1.6548,5.79159 0,3.6692 1.6548,5.70165 1.6727,2.01447 4.7304,2.01447 2.0864,0 3.6332,-0.95328 1.5648,-0.97126 2.4641,-2.78787 l 2.4641,0.95327 q -1.1511,2.53607 -3.3994,3.939 -2.2303,1.38495 -5.0541,1.38495 z m -7.4284,-9.51476 v -2.21231 h 14.8387 v 2.21231 z"
         id="text5"
         transform="translate(-123.76346)"
         aria-label="Frontend Developer Addicted to         and Caffeine " /><g
         id="g5"
         transform="matrix(0.91835685,0,0,0.91835685,835.4656,242.95411)"
         style="fill:#ffd42a"><path
           fill="#fcea2b"
           d="M 59.035,60 H 12.965 A 0.97,0.97 0 0 1 12,59.035 V 12.965 A 0.97,0.97 0 0 1 12.965,12 h 46.07 A 0.97,0.97 0 0 1 60,12.965 v 46.07 A 0.97,0.97 0 0 1 59.035,60"
           id="path1"
           style="fill:#ffd42a" /><g
           fill="none"
           stroke="#000000"
           stroke-linejoin="round"
           stroke-width="2"
           id="g4"
           style="fill:#ffd42a"><path
             stroke-width="1"
             d="M 59.035,60 H 12.965 A 0.97,0.97 0 0 1 12,59.035 V 12.965 A 0.97,0.97 0 0 1 12.965,12 h 46.07 A 0.97,0.97 0 0 1 60,12.965 v 46.07 A 0.97,0.97 0 0 1 59.035,60 Z"
             id="path2"
             style="fill:#ffd42a" /><path
             stroke-linecap="round"
             stroke-miterlimit="10"
             stroke-width="4.453"
             d="m 53.82,41.34 c -0.456,-1.777 -2.429,-3.11 -4.793,-3.11 -2.703,0 -4.893,1.743 -4.893,3.896 0,2.151 2.191,3.896 4.893,3.896 l -0.1,0.013 c 2.703,0 4.893,1.745 4.893,3.896 0,2.153 -2.191,3.896 -4.893,3.896 -2.364,0 -4.337,-1.336 -4.793,-3.112"
             clip-rule="evenodd"
             id="path3"
             style="fill:#ffd42a" /><path
             stroke-linecap="round"
             stroke-miterlimit="10"
             stroke-width="4.456"
             d="m 36.74,38.23 v 10.03 a 5.568,5.568 0 0 1 -9.296,4.139"
             clip-rule="evenodd"
             id="path4"
             style="fill:#ffd42a" /></g></g></g></g></svg>
