<?xml version="1.0" encoding="UTF-8" standalone="no"?>
<!-- Created with Inkscape (http://www.inkscape.org/) -->

<svg
   width="29.084694"
   height="29.084694"
   viewBox="0 0 7.6953251 7.6953252"
   version="1.1"
   id="svg1"
   xml:space="preserve"
   xmlns:xlink="http://www.w3.org/1999/xlink"
   xmlns="http://www.w3.org/2000/svg"
   xmlns:svg="http://www.w3.org/2000/svg"><defs
     id="defs1"><linearGradient
       id="linearGradient1"><stop
         style="stop-color:#16a2ff;stop-opacity:1;"
         offset="0"
         id="stop1" /><stop
         style="stop-color:#bf2bff;stop-opacity:1;"
         offset="1"
         id="stop2" /></linearGradient><linearGradient
       xlink:href="#linearGradient1"
       id="linearGradient2"
       x1="8.8412809"
       y1="6.5576329"
       x2="16.383606"
       y2="6.5576329"
       gradientUnits="userSpaceOnUse"
       gradientTransform="translate(0,0.03224761)" /></defs><g
     id="layer1"
     transform="translate(-8.7647811,-2.7422178)"><rect
       style="fill:url(#linearGradient2);stroke:#b3b3b3;stroke-width:0.153;stroke-dasharray:none;stroke-opacity:1"
       id="rect1"
       width="7.542325"
       height="7.542325"
       x="8.8412809"
       y="2.8187177"
       ry="0.8308841" /><path
       fill="currentColor"
       d="m 14.889866,4.8007744 -1.909276,-1.13342 a 0.72067168,0.72067168 0 0 0 -0.736546,2.52e-4 l -1.909277,1.133168 A 0.76098899,0.76098899 0 0 0 9.9666214,5.4566865 v 2.2665881 c 0,0.2703779 0.1403566,0.520597 0.3683986,0.655912 l 1.909275,1.1331683 a 0.72067168,0.72067168 0 0 0 0.736295,0 l 1.909276,-1.1331683 a 0.76098899,0.76098899 0 0 0 0.3684,-0.655912 V 5.4566865 a 0.76098899,0.76098899 0 0 0 -0.3684,-0.6559121 m -1.478638,3.5393549 0.0034,0.162781 c 2.53e-4,0.019654 -0.01265,0.042082 -0.02798,0.049893 l -0.0965,0.055436 c -0.01537,0.00782 -0.02796,-0.00176 -0.02822,-0.021418 l -0.0018,-0.1600087 c -0.08265,0.03427 -0.166307,0.042585 -0.219729,0.021167 -0.01005,-0.00404 -0.01433,-0.018898 -0.01036,-0.035782 l 0.03504,-0.1471583 a 0.06047595,0.06047595 0 0 1 0.01739,-0.03049 0.05039663,0.05039663 0 0 1 0.0091,-0.00655 q 0.0084,-0.00428 0.01562,-0.00151 c 0.05771,0.019403 0.131276,0.010332 0.202091,-0.025451 0.08995,-0.045609 0.150186,-0.1373313 0.149181,-0.2285487 -7.54e-4,-0.08265 -0.04561,-0.1171713 -0.154463,-0.1179271 -0.138589,2.52e-4 -0.26811,-0.026962 -0.270125,-0.2310685 -0.0018,-0.1680728 0.08567,-0.342949 0.224012,-0.4535697 l -0.0018,-0.164293 c -2.51e-4,-0.020158 0.01204,-0.042333 0.02796,-0.050396 l 0.09324,-0.059468 c 0.01537,-0.00782 0.02798,0.00176 0.02822,0.021923 l 0.0015,0.164545 c 0.0688,-0.027466 0.128761,-0.034774 0.18294,-0.022175 0.01188,0.00302 0.01688,0.019151 0.01204,0.038049 l -0.03628,0.1456467 a 0.0655156,0.0655156 0 0 1 -0.01638,0.029229 0.05039663,0.05039663 0 0 1 -0.0096,0.00705 0.02519831,0.02519831 0 0 1 -0.01433,0.00227 c -0.0247,-0.00555 -0.08365,-0.018395 -0.176137,0.028474 -0.09702,0.049136 -0.131031,0.1335507 -0.13027,0.196043 7.56e-4,0.074838 0.03906,0.097517 0.1716,0.099785 0.17639,0.00302 0.25274,0.080131 0.254504,0.2577786 0.0018,0.1736164 -0.09121,0.3610919 -0.233841,0.4757442 m 1.001136,-0.2739076 c 0,0.015116 -0.002,0.02923 -0.01463,0.036538 l -0.482801,0.2933081 c -0.01265,0.00732 -0.02267,0.00101 -0.02267,-0.014111 V 8.2574796 c 0,-0.015116 0.0093,-0.023435 0.02193,-0.030741 l 0.475492,-0.2844888 c 0.01265,-0.00732 0.02267,-0.00101 0.02267,0.01411 z m 0.331618,-2.7874338 -1.806216,1.1155292 c -0.225244,0.1317871 -0.391301,0.2794493 -0.391301,0.551087 v 2.2257673 c 0,0.162528 0.06553,0.267857 0.16631,0.298347 a 0.57956115,0.57956115 0 0 1 -0.100297,0.0098 c -0.105828,0 -0.209902,-0.02873 -0.301625,-0.08315 L 10.401544,8.2630224 A 0.62995776,0.62995776 0 0 1 10.098912,7.7232746 V 5.4566865 c 0,-0.2219971 0.115915,-0.4288753 0.302632,-0.5397479 l 1.909274,-1.13342 a 0.58964047,0.58964047 0 0 1 0.603248,0 l 1.909278,1.13342 a 0.6249181,0.6249181 0 0 1 0.293307,0.4364348 c -0.0635,-0.1350629 -0.206122,-0.1718525 -0.372683,-0.074587"
       id="path1"
       style="fill:#f9f9f9;stroke-width:0.251984" /></g></svg>
