<?xml version="1.0" encoding="UTF-8" standalone="no"?>
<!-- Created with Inkscape (http://www.inkscape.org/) -->

<svg
   width="29.084694"
   height="29.084694"
   viewBox="0 0 7.6953251 7.6953252"
   version="1.1"
   id="svg1"
   xml:space="preserve"
   xmlns:xlink="http://www.w3.org/1999/xlink"
   xmlns="http://www.w3.org/2000/svg"
   xmlns:svg="http://www.w3.org/2000/svg"><defs
     id="defs1"><linearGradient
       id="linearGradient1"><stop
         style="stop-color:#16a2ff;stop-opacity:1;"
         offset="0"
         id="stop1" /><stop
         style="stop-color:#bf2bff;stop-opacity:1;"
         offset="1"
         id="stop2" /></linearGradient><linearGradient
       xlink:href="#linearGradient1"
       id="linearGradient2"
       x1="8.8412809"
       y1="6.5576329"
       x2="16.383606"
       y2="6.5576329"
       gradientUnits="userSpaceOnUse"
       gradientTransform="translate(0,0.03224761)" /></defs><g
     id="layer1"
     transform="translate(-8.7647811,-2.7422178)"><rect
       style="fill:url(#linearGradient2);stroke:#b3b3b3;stroke-width:0.153;stroke-dasharray:none;stroke-opacity:1"
       id="rect1"
       width="7.542325"
       height="7.542325"
       x="8.8412809"
       y="2.8187177"
       ry="0.8308841" /><path
       fill="currentColor"
       d="M 15.57406,6.026148 C 15.373727,5.9096746 15.108167,5.8956978 14.884537,5.960923 14.856585,5.7186585 14.698182,5.5090066 14.511824,5.3599209 l -0.07455,-0.060567 -0.06523,0.074542 c -0.125797,0.1444266 -0.163063,0.3866913 -0.144429,0.5730485 0.01397,0.135109 0.05591,0.274877 0.139771,0.3866912 -0.06523,0.037272 -0.135114,0.08852 -0.200335,0.1118143 -0.130456,0.04659 -0.274876,0.093179 -0.414645,0.093179 H 13.440271 V 5.8817211 H 12.834608 V 4.7169884 h -0.698839 v 0.5590717 h -1.164733 v 0.605661 H 10.365374 V 6.5339714 H 9.8435743 l -0.0093,0.069885 c -0.02329,0.2981716 0.01397,0.5870253 0.139771,0.8619022 l 0.05125,0.1024965 0.0046,0.00932 c 0.368056,0.6242967 1.010988,0.8851969 1.714488,0.8851969 1.360407,0 2.48321,-0.61032 2.995692,-1.891526 0.344761,0.018635 0.698839,-0.08386 0.866561,-0.4146447 l 0.04192,-0.083861 z m -4.509846,-0.61032 h 0.465893 v 0.5124825 h -0.465893 z m 0.61032,2.0592474 c 0,0.079202 -0.06523,0.1444267 -0.14443,0.1444267 -0.0792,0 -0.144429,-0.065225 -0.144429,-0.1444267 0,-0.079202 0.06523,-0.1444265 0.144429,-0.1444265 0.0792,0.00465 0.14443,0.065225 0.14443,0.1444265 M 11.064214,6.021489 h 0.465893 v 0.5124824 h -0.465893 z m -0.605661,0 h 0.512483 v 0.5124824 h -0.512483 z m 1.290525,2.3387833 c -0.736112,-0.00465 -1.132121,-0.2515822 -1.458246,-0.5777075 0.09783,0.00465 0.191016,0.00932 0.274877,0.00932 0.07455,0 0.149088,0 0.218969,-0.00465 0.181698,-0.00932 0.340103,-0.032612 0.470554,-0.069885 0.107152,0.2469246 0.30283,0.4752122 0.65225,0.6429337 z M 12.135769,6.5339714 H 11.623287 V 6.021489 h 0.512482 z m 0,-0.6056609 H 11.623287 V 5.415828 h 0.512482 z m 0.605662,0.6056609 H 12.228947 V 6.021489 h 0.512484 z m 0,-0.6056609 H 12.228947 V 5.415828 h 0.512484 z m 0,-0.6056611 H 12.228947 V 4.810167 h 0.512484 z m 0.60566,1.211322 H 12.834608 V 6.021489 h 0.512483 z m -1.779712,0.8479255 c -0.0093,-0.00465 -0.02329,-0.00932 -0.03727,-0.00932 -0.05591,0 -0.102488,0.04659 -0.102488,0.1024965 0,0.055907 0.0466,0.1024966 0.102488,0.1024966 0.05591,0 0.102488,-0.04659 0.102488,-0.1024966 0,-0.013974 -0.0046,-0.027952 -0.0094,-0.037271 -0.0094,0.013974 -0.01863,0.023295 -0.03727,0.023295 -0.02329,0 -0.04193,-0.018635 -0.04193,-0.04193 0.0046,-0.018635 0.01397,-0.032612 0.02329,-0.037272"
       id="path1"
       style="fill:#f9f9f9;stroke-width:0.0465894" /></g></svg>
