<?xml version="1.0" encoding="UTF-8" standalone="no"?>
<!-- Created with Inkscape (http://www.inkscape.org/) -->

<svg
   width="29.084694"
   height="29.084694"
   viewBox="0 0 7.6953251 7.6953252"
   version="1.1"
   id="svg1"
   xml:space="preserve"
   xmlns:xlink="http://www.w3.org/1999/xlink"
   xmlns="http://www.w3.org/2000/svg"
   xmlns:svg="http://www.w3.org/2000/svg"><defs
     id="defs1"><linearGradient
       id="linearGradient1"><stop
         style="stop-color:#16a2ff;stop-opacity:1;"
         offset="0"
         id="stop1" /><stop
         style="stop-color:#bf2bff;stop-opacity:1;"
         offset="1"
         id="stop2" /></linearGradient><linearGradient
       xlink:href="#linearGradient1"
       id="linearGradient2"
       x1="8.8412809"
       y1="6.5576329"
       x2="16.383606"
       y2="6.5576329"
       gradientUnits="userSpaceOnUse"
       gradientTransform="translate(0,0.03224761)" /></defs><g
     id="layer1"
     transform="translate(-8.7647811,-2.7422178)"><rect
       style="fill:url(#linearGradient2);stroke:#b3b3b3;stroke-width:0.153;stroke-dasharray:none;stroke-opacity:1"
       id="rect1"
       width="7.542325"
       height="7.542325"
       x="8.8412809"
       y="2.8187177"
       ry="0.8308841" /><path
       fill="currentColor"
       d="m 11.847076,4.9487923 c 0.134956,0.024906 0.09744,0.2283774 -0.03754,0.2034723 C 10.739014,4.9533135 9.9889908,5.3763887 10.556797,6.4239684 10.624661,6.5429349 10.444629,6.6456143 10.376779,6.5266367 9.7007006,5.342285 10.577371,4.7083475 11.847076,4.9487812 m 2.699883,2.0088453 c 0.956967,-1.1702189 0.535533,-2.0404707 -0.615095,-2.0547038 -0.136655,-0.00178 -0.139189,0.2050908 -0.0025,0.2068769 1.018501,-0.00435 1.26082,0.7490973 0.459078,1.7145268 -0.08835,0.1074349 0.07347,0.2353767 0.15854,0.1332897 m -1.006675,1.8354575 c 0.06994,-0.1161088 -0.104194,-0.2243362 -0.177529,-0.1069221 -0.57897,0.9161662 -1.286651,0.6339039 -1.714962,-0.4708428 -0.0463,-0.1316148 -0.241852,-0.062805 -0.195547,0.068799 0.378914,1.1572808 1.383762,1.6671497 2.088038,0.5089763 M 12.906176,6.7322857 c 0,-0.22322 -0.243302,-0.363486 -0.436895,-0.251876 -0.193604,0.1116098 -0.193604,0.3921531 0,0.503763 0.193593,0.1116098 0.436895,-0.028656 0.436895,-0.251887 m -2.54353,0.9403904 c 0.03374,-0.9196158 1.373322,-2.0926256 2.953054,-2.4962655 0.135645,-0.029482 0.09169,-0.2316594 -0.04396,-0.2021661 -1.459111,0.3230526 -3.190126,1.6201306 -3.117364,2.7553083 -0.2529138,0.1526347 -0.2502792,0.5231088 0.0077,0.6713343 0.260628,0.1497099 0.588157,-0.038435 0.588157,-0.3378441 0,-0.2250506 -0.185053,-0.3872412 -0.387643,-0.3903446 m 4.290018,0.7170254 c 0.186247,0.1211766 0.455628,0.065685 0.564346,-0.1518199 0.133818,-0.2677277 -0.07496,-0.5823633 -0.374918,-0.5649935 -0.281603,0.016309 -0.447399,0.3139883 -0.329136,0.5574918 -0.909836,0.3958369 -2.599848,-0.2664887 -3.593499,-1.3193263 -0.09094,-0.1003234 -0.244419,0.038782 -0.153494,0.1391165 0.942456,1.0421209 2.85744,1.8847996 3.886701,1.3395317 M 13.006869,4.1220214 c 8.9e-5,-0.2559729 -0.25565,-0.4544886 -0.514592,-0.3702844 -0.285722,0.092934 -0.362994,0.4610414 -0.138758,0.6610306 0.188659,0.1682298 0.472719,0.1122348 0.594756,-0.08417 0.707011,0.4674043 1.145737,2.0647731 0.678254,3.7553884 -0.04043,0.1308659 0.157658,0.1920745 0.198092,0.061208 C 14.249403,6.773077 14.019609,4.741146 13.006869,4.122"
       id="path1"
       style="fill:#f9f9f9;stroke-width:0.0111632" /></g></svg>
