<?xml version="1.0" encoding="UTF-8" standalone="no"?>
<!-- Created with Inkscape (http://www.inkscape.org/) -->

<svg
   width="29.084694"
   height="29.084694"
   viewBox="0 0 7.6953251 7.6953252"
   version="1.1"
   id="svg1"
   xml:space="preserve"
   xmlns:xlink="http://www.w3.org/1999/xlink"
   xmlns="http://www.w3.org/2000/svg"
   xmlns:svg="http://www.w3.org/2000/svg"><defs
     id="defs1"><linearGradient
       id="linearGradient1"><stop
         style="stop-color:#16a2ff;stop-opacity:1;"
         offset="0"
         id="stop1" /><stop
         style="stop-color:#bf2bff;stop-opacity:1;"
         offset="1"
         id="stop2" /></linearGradient><linearGradient
       xlink:href="#linearGradient1"
       id="linearGradient2"
       x1="8.8412809"
       y1="6.5576329"
       x2="16.383606"
       y2="6.5576329"
       gradientUnits="userSpaceOnUse"
       gradientTransform="translate(0,0.03224761)" /></defs><g
     id="layer1"
     transform="translate(-8.7647811,-2.7422178)"><rect
       style="fill:url(#linearGradient2);stroke:#b3b3b3;stroke-width:0.153;stroke-dasharray:none;stroke-opacity:1"
       id="rect1"
       width="7.542325"
       height="7.542325"
       x="8.8412809"
       y="2.8187177"
       ry="0.8308841" /><path
       fill="currentColor"
       d="m 13.957794,9.020957 c -0.02066,0.010934 -0.01893,0.014411 8.67e-4,0.00434 a 0.05208828,0.05208828 0 0 0 0.0165,-0.010598 c 0,-0.00364 0,-0.00364 -0.01736,0.00625 m 0.04168,-0.022572 c -0.01,0.00816 -0.01,0.00816 0.002,0.00277 a 0.05208828,0.05208828 0 0 0 0.01176,-0.00816 c 0,-0.00469 -0.0028,-0.00364 -0.01372,0.00538 m 0.02709,-0.01632 c -0.01,0.00816 -0.01,0.00816 0.002,0.00277 a 0.05208828,0.05208828 0 0 0 0.01176,-0.00833 c 0,-0.00434 -0.0028,-0.00348 -0.01372,0.00555 m 0.02744,-0.016147 c -0.01,0.00816 -0.01,0.00816 0.0016,0.0026 0.0064,-0.00348 0.01176,-0.00711 0.01176,-0.00816 0,-0.00434 -0.0028,-0.00348 -0.0133,0.00555 m 0.03698,-0.024481 c -0.01893,0.012669 -0.02553,0.020836 -0.0081,0.011802 0.01162,-0.00713 0.03143,-0.022745 0.02796,-0.022745 -0.0075,0.00277 -0.01372,0.00747 -0.01996,0.010934 z M 12.430565,3.8131705 c -0.01274,8.682e-4 -0.05069,0.00434 -0.08404,0.00713 -0.789654,0.071528 -1.528439,0.496568 -1.996713,1.1513177 A 2.7433162,2.7433162 0 0 0 9.8594861,6.1851009 c -0.022396,0.1527923 -0.025168,0.1979354 -0.025168,0.4050733 0,0.206964 0.00283,0.2514127 0.025168,0.4042051 0.1512289,1.0436754 0.8936599,1.9198004 1.9000059,2.244484 0.181094,0.057818 0.370869,0.097752 0.587035,0.1222324 0.08404,0.00903 0.447439,0.00903 0.531475,0 0.373645,-0.041671 0.689127,-0.1338661 1.00131,-0.2930826 0.04792,-0.024307 0.05695,-0.030731 0.05053,-0.036115 A 59.207015,59.207015 0 0 1 13.476845,8.4250671 L 13.032879,7.8255308 12.47675,7.0016679 A 72.229085,72.229085 0 0 0 11.916107,6.1779786 c -0.002,0 -0.0043,0.3661806 -0.0054,0.8127508 -0.002,0.7821923 -0.002,0.8139662 -0.01176,0.8320235 a 0.09896773,0.09896773 0 0 1 -0.04792,0.049832 c -0.01719,0.00816 -0.03265,0.0099 -0.114769,0.0099 h -0.09393 l -0.02449,-0.01528 a 0.10417656,0.10417656 0 0 1 -0.03612,-0.03976 l -0.01176,-0.024481 8.68e-4,-1.0888187 0.002,-1.0888188 0.01719,-0.021703 a 0.13890209,0.13890209 0 0 1 0.03976,-0.032468 c 0.02275,-0.010934 0.03178,-0.012669 0.125702,-0.012669 0.110261,0 0.128488,0.00434 0.15748,0.036115 a 104.69745,104.69745 0 0 1 0.670031,1.0091154 c 0.360973,0.5472743 0.853727,1.2940467 1.095938,1.6604008 l 0.440492,0.6665564 0.0217,-0.014411 a 2.8474928,2.8474928 0 0 0 0.570224,-0.500915 2.7676241,2.7676241 0 0 0 0.654056,-1.4197531 c 0.0224,-0.1527922 0.02517,-0.1981091 0.02517,-0.4050732 0,-0.2069641 -0.0028,-0.2514127 -0.02517,-0.404205 C 15.214163,5.1426371 14.471731,4.2665122 13.465385,3.941655 A 2.9516694,2.9516694 0 0 0 12.887553,3.820637 c -0.05262,-0.00538 -0.41167,-0.011802 -0.456814,-0.00713 z m 1.13674,1.6801943 a 0.10764912,0.10764912 0 0 1 0.05503,0.063202 c 0.0047,0.014584 0.0056,0.3165232 0.0047,0.9966225 L 13.62517,7.5296695 13.453406,7.2657555 13.280645,7.0016679 V 6.2927464 c 0,-0.4595923 0.002,-0.7172557 0.0043,-0.7299305 a 0.1163305,0.1163305 0 0 1 0.05435,-0.068583 c 0.02154,-0.010934 0.02986,-0.011802 0.115805,-0.011802 0.08039,0 0.09393,8.681e-4 0.111996,0.010934 z"
       id="path1"
       style="fill:#f9f9f9;stroke-width:0.173627" /></g></svg>
