<?xml version="1.0" encoding="UTF-8" standalone="no"?>
<!-- Created with Inkscape (http://www.inkscape.org/) -->

<svg
   width="29.084694"
   height="29.084692"
   viewBox="0 0 7.6953251 7.6953247"
   version="1.1"
   id="svg1"
   xml:space="preserve"
   xmlns:xlink="http://www.w3.org/1999/xlink"
   xmlns="http://www.w3.org/2000/svg"
   xmlns:svg="http://www.w3.org/2000/svg"><defs
     id="defs1"><linearGradient
       id="linearGradient1"><stop
         style="stop-color:#16a2ff;stop-opacity:1;"
         offset="0"
         id="stop1" /><stop
         style="stop-color:#bf2bff;stop-opacity:1;"
         offset="1"
         id="stop2" /></linearGradient><linearGradient
       xlink:href="#linearGradient1"
       id="linearGradient2"
       x1="8.8412809"
       y1="6.5576329"
       x2="16.383606"
       y2="6.5576329"
       gradientUnits="userSpaceOnUse" /><clipPath
       id="SVGXv8lpc2Y"><path
         fill="#ffffff"
         d="M 0,0 H 24 V 24 H 0 Z"
         id="path3" /></clipPath></defs><g
     id="layer1"
     transform="translate(-8.7647811,-2.70997)"><rect
       style="fill:url(#linearGradient2);stroke:#b3b3b3;stroke-width:0.153;stroke-dasharray:none;stroke-opacity:1"
       id="rect1"
       width="7.542325"
       height="7.542325"
       x="8.8412809"
       y="2.7864702"
       ry="0.8308841" /><g
       fill="none"
       id="g3"
       transform="matrix(0.24253472,0,0,0.24253472,9.7020268,3.647216)"
       style="fill:#f9f9f9"><g
         fill="currentColor"
         clip-path="url(#SVGXv8lpc2Y)"
         id="g2"
         style="fill:#f9f9f9"><path
           d="M 11.914,0 C 5.82,0 6.2,2.656 6.2,2.656 l 0.007,2.752 h 5.814 V 6.234 H 3.9 c 0,0 -3.9,-0.445 -3.9,5.735 0,6.18 3.403,5.96 3.403,5.96 h 2.03 v -2.867 c 0,0 -0.109,-3.42 3.35,-3.42 h 5.766 c 0,0 3.24,0.052 3.24,-3.148 V 3.202 C 17.789,3.202 18.28,0 11.913,0 M 8.708,1.85 c 0.578,0 1.046,0.47 1.046,1.052 0,0.581 -0.468,1.051 -1.046,1.051 C 8.13,3.953 7.662,3.483 7.662,2.902 7.662,2.32 8.129,1.85 8.708,1.85"
           id="path1"
           style="fill:#f9f9f9" /><path
           d="m 12.087,24 c 6.092,0 5.712,-2.656 5.712,-2.656 l -0.007,-2.752 h -5.814 v -0.826 h 8.123 c 0,0 3.9,0.445 3.9,-5.735 0,-6.18 -3.404,-5.96 -3.404,-5.96 h -2.03 v 2.867 c 0,0 0.109,3.42 -3.35,3.42 H 9.452 c 0,0 -3.24,-0.052 -3.24,3.148 v 5.292 c 0,0 -0.492,3.202 5.875,3.202 m 3.206,-1.85 c -0.579,0 -1.046,-0.47 -1.046,-1.052 0,-0.581 0.467,-1.051 1.046,-1.051 0.578,0 1.046,0.47 1.046,1.051 0,0.582 -0.468,1.052 -1.046,1.052"
           id="path2"
           style="fill:#f9f9f9" /></g><defs
         id="defs3" /></g></g></svg>
