<?xml version="1.0" encoding="UTF-8" standalone="no"?>
<!-- Created with Inkscape (http://www.inkscape.org/) -->

<svg
   width="29.084694"
   height="29.084692"
   viewBox="0 0 7.6953251 7.6953247"
   version="1.1"
   id="svg1"
   xml:space="preserve"
   xmlns:xlink="http://www.w3.org/1999/xlink"
   xmlns="http://www.w3.org/2000/svg"
   xmlns:svg="http://www.w3.org/2000/svg"><defs
     id="defs1"><linearGradient
       id="linearGradient1"><stop
         style="stop-color:#16a2ff;stop-opacity:1;"
         offset="0"
         id="stop1" /><stop
         style="stop-color:#bf2bff;stop-opacity:1;"
         offset="1"
         id="stop2" /></linearGradient><linearGradient
       xlink:href="#linearGradient1"
       id="linearGradient2"
       x1="8.8412809"
       y1="6.5576329"
       x2="16.383606"
       y2="6.5576329"
       gradientUnits="userSpaceOnUse" /></defs><g
     id="layer1"
     transform="translate(-8.7647811,-2.70997)"><rect
       style="fill:url(#linearGradient2);stroke:#b3b3b3;stroke-width:0.153;stroke-dasharray:none;stroke-opacity:1"
       id="rect1"
       width="7.542325"
       height="7.542325"
       x="8.8412809"
       y="2.7864702"
       ry="0.8308841" /><path
       fill="currentColor"
       d="M 14.456475,5.6614923 Q 14.364385,5.6307963 14.2723,5.6035113 c 0.01024,-0.042064 0.01933,-0.084129 0.02842,-0.1261934 0.139836,-0.6775817 0.04775,-1.2221477 -0.26262,-1.4017751 -0.299,-0.171669 -0.786722,0.00682 -1.280128,0.4365625 -0.04889,0.042065 -0.09664,0.086403 -0.142111,0.1307413 -0.03069,-0.029559 -0.06252,-0.059118 -0.09436,-0.08754 C 12.00422,4.0960067 11.485802,3.9027369 11.175434,4.083501 c -0.297863,0.1728059 -0.38654,0.6855394 -0.261483,1.3267404 0.01251,0.063665 0.02615,0.1261934 0.04206,0.1898591 -0.07276,0.020464 -0.144384,0.043202 -0.21146,0.067077 -0.607094,0.2103226 -1.0425195,0.542292 -1.0425195,0.88563 0,0.354707 0.4638475,0.7105508 1.0948165,0.9265583 0.05116,0.017053 0.102319,0.034106 0.154616,0.048885 -0.01705,0.068213 -0.03183,0.1352882 -0.04548,0.2046385 -0.119372,0.6309691 -0.02615,1.1311969 0.271714,1.302866 0.306958,0.1773534 0.823102,-0.00455 1.325604,-0.4445207 0.03979,-0.035244 0.07958,-0.071623 0.119372,-0.1102771 0.05002,0.048885 0.102319,0.095498 0.154616,0.140973 0.486585,0.4183727 0.967486,0.587768 1.264212,0.416099 0.306958,-0.1773536 0.407004,-0.7150983 0.2774,-1.3699419 q -0.01535,-0.075035 -0.03411,-0.153479 c 0.03638,-0.010237 0.07162,-0.021601 0.106867,-0.032969 0.655979,-0.2171447 1.131196,-0.568441 1.131196,-0.9288324 0,-0.344475 -0.447931,-0.6787181 -1.066395,-0.8913148 M 12.918275,4.69628 c 0.42292,-0.3683494 0.817417,-0.5127333 0.997045,-0.4092772 0.192133,0.1102772 0.26603,0.5559349 0.145521,1.1414287 -0.008,0.038654 -0.01592,0.076171 -0.02615,0.1136887 -0.252386,-0.056844 -0.508185,-0.097772 -0.76512,-0.12051 C 13.121777,5.2101504 12.96034,5.0077855 12.78526,4.8179264 12.8296,4.7758624 12.8728,4.7360704 12.918275,4.6962796 m -1.315372,2.4465689 c 0.05798,0.098909 0.117099,0.1978173 0.179628,0.2944522 -0.177354,-0.019326 -0.353571,-0.047749 -0.527513,-0.085266 0.05002,-0.163711 0.112552,-0.3331064 0.185311,-0.5059122 0.0523,0.1000457 0.105731,0.1989541 0.162574,0.2967259 m -0.344475,-1.367668 c 0.163711,-0.03638 0.337654,-0.065939 0.518418,-0.088677 -0.06025,0.094361 -0.119372,0.1909961 -0.17508,0.2887679 -0.05571,0.096635 -0.110277,0.1955436 -0.161437,0.2955891 -0.07162,-0.1693952 -0.131878,-0.3353797 -0.181901,-0.4956801 m 0.311506,0.7833112 c 0.07503,-0.1568896 0.156889,-0.3103686 0.243292,-0.4615737 0.0864,-0.1512052 0.179627,-0.2978629 0.277399,-0.4422468 0.170533,-0.012511 0.344475,-0.019328 0.521829,-0.019328 0.177353,0 0.352433,0.00682 0.521828,0.019328 q 0.144952,0.2148706 0.276262,0.439973 c 0.13131,0.2251025 0.169396,0.3035473 0.246704,0.4593 q -0.114257,0.2353345 -0.245567,0.4638476 c -0.0864,0.1512052 -0.17849,0.2978629 -0.275125,0.4433836 -0.169395,0.012511 -0.345612,0.01819 -0.524102,0.01819 -0.17849,0 -0.351296,-0.00569 -0.518418,-0.015916 Q 11.945673,7.2468731 11.814363,7.0200653 C 11.683053,6.7932576 11.646105,6.7153811 11.569934,6.5584915 m 2.053207,0.5820832 c 0.05798,-0.1000457 0.112552,-0.2012279 0.165985,-0.3035473 0.07276,0.1648478 0.136426,0.3319694 0.192133,0.5036384 -0.176217,0.039791 -0.354707,0.070487 -0.534334,0.090951 0.06139,-0.095498 0.119372,-0.1932699 0.176216,-0.2910417 M 13.786852,6.2708606 C 13.733419,6.1708151 13.678848,6.0707695 13.622004,5.9729977 Q 13.538444,5.8280453 13.448061,5.6865036 c 0.183038,0.022738 0.358118,0.053434 0.521829,0.090951 -0.0523,0.1682584 -0.113689,0.3319693 -0.183038,0.4934065 M 12.614728,4.9918692 c 0.119372,0.1296049 0.231923,0.2660302 0.336516,0.4070034 -0.225102,-0.010237 -0.451341,-0.010237 -0.676444,0 0.111414,-0.1466578 0.226239,-0.2830834 0.339928,-0.4070034 M 11.295945,4.294961 c 0.190996,-0.1114139 0.615053,0.047749 1.061847,0.4433836 0.02842,0.025011 0.05684,0.052297 0.0864,0.079581 -0.176216,0.1898599 -0.33879,0.3922248 -0.487722,0.6036846 -0.256935,0.022738 -0.511596,0.062528 -0.763984,0.1182358 C 11.177706,5.481865 11.165196,5.4227472 11.152696,5.3636294 11.045829,4.8133788 11.116316,4.3984171 11.295943,4.294961 M 11.017409,7.2917799 C 10.96966,7.2781373 10.923048,7.2633579 10.876436,7.2474416 10.63428,7.1712706 10.359155,7.050761 10.160201,6.8927346 10.045376,6.8131529 9.9680683,6.6903697 9.9464676,6.5528071 c 0,-0.2080492 0.3592544,-0.4740795 0.8776724,-0.6548436 0.0648,-0.022738 0.130741,-0.043202 0.19668,-0.062528 0.07731,0.2467033 0.170532,0.488859 0.278536,0.7230564 -0.109141,0.2376082 -0.203502,0.4831746 -0.281947,0.7332884 m 1.325604,1.1141436 c -0.187585,0.1716692 -0.40473,0.3080948 -0.641201,0.4013192 -0.126194,0.060255 -0.271715,0.065939 -0.401319,0.014779 -0.180764,-0.1045931 -0.255798,-0.5059122 -0.153479,-1.0459308 0.01251,-0.063665 0.02615,-0.1273301 0.04206,-0.1898593 0.254661,0.05457 0.511596,0.092088 0.771942,0.1114139 0.150069,0.2125968 0.314916,0.4160985 0.491133,0.6070945 -0.03638,0.035244 -0.07276,0.06935 -0.109141,0.1011824 M 12.621549,8.1296615 C 12.505587,8.0046044 12.389625,7.865905 12.277074,7.7169736 c 0.10914,0.00455 0.221692,0.00682 0.33538,0.00682 0.117099,0 0.231924,-0.00227 0.345612,-0.00796 -0.104594,0.1443805 -0.217145,0.2819426 -0.336517,0.4138209 m 1.485904,0.3410713 c -0.01023,0.1386996 -0.07845,0.268304 -0.187586,0.3558438 -0.180764,0.1045931 -0.566167,-0.031833 -0.982265,-0.3888134 -0.04775,-0.040928 -0.0955,-0.085266 -0.144384,-0.1307413 0.173943,-0.192133 0.334243,-0.3956347 0.479764,-0.6093683 0.260346,-0.021601 0.519555,-0.061392 0.775353,-0.119372 0.01137,0.046612 0.0216,0.093224 0.0307,0.1386997 0.05571,0.2455663 0.0648,0.5013646 0.02842,0.7537522 m 0.206912,-1.2221481 c -0.03183,0.010237 -0.06367,0.020464 -0.09664,0.029559 -0.07958,-0.2478404 -0.177352,-0.4899961 -0.289904,-0.7253305 0.109141,-0.2319238 0.201228,-0.4706687 0.278536,-0.7150982 0.05912,0.017053 0.115962,0.035242 0.170532,0.053434 0.529787,0.1819011 0.901547,0.4524787 0.901547,0.6593912 0,0.2228287 -0.396771,0.5104597 -0.964075,0.698045 M 12.612454,7.0780463 c 0.287631,0 0.520692,-0.2330607 0.520692,-0.5206916 0,-0.287631 -0.233061,-0.5206916 -0.520692,-0.5206916 -0.287631,0 -0.520692,0.2330606 -0.520692,0.5206916 0,0.2876309 0.233061,0.5206916 0.520692,0.5206916"
       id="path1"
       style="fill:#f9f9f9;stroke-width:0.0113688" /></g></svg>
