<?xml version="1.0" encoding="UTF-8" standalone="no"?>
<!-- Created with Inkscape (http://www.inkscape.org/) -->

<svg
   width="29.084694"
   height="29.084694"
   viewBox="0 0 7.6953251 7.6953252"
   version="1.1"
   id="svg1"
   xml:space="preserve"
   xmlns:xlink="http://www.w3.org/1999/xlink"
   xmlns="http://www.w3.org/2000/svg"
   xmlns:svg="http://www.w3.org/2000/svg"><defs
     id="defs1"><linearGradient
       id="linearGradient1"><stop
         style="stop-color:#16a2ff;stop-opacity:1;"
         offset="0"
         id="stop1" /><stop
         style="stop-color:#bf2bff;stop-opacity:1;"
         offset="1"
         id="stop2" /></linearGradient><linearGradient
       xlink:href="#linearGradient1"
       id="linearGradient2"
       x1="8.8412809"
       y1="6.5576329"
       x2="16.383606"
       y2="6.5576329"
       gradientUnits="userSpaceOnUse"
       gradientTransform="translate(0,0.03224761)" /><clipPath
       id="SVGXv8lpc2Y-0"><path
         fill="#ffffff"
         d="M 0,0 H 24 V 24 H 0 Z"
         id="path2" /></clipPath></defs><g
     id="layer1"
     transform="translate(-8.7647811,-2.7422178)"><rect
       style="fill:url(#linearGradient2);stroke:#b3b3b3;stroke-width:0.153;stroke-dasharray:none;stroke-opacity:1"
       id="rect1"
       width="7.542325"
       height="7.542325"
       x="8.8412809"
       y="2.8187177"
       ry="0.8308841" /><g
       fill="none"
       id="g2"
       transform="matrix(0.22049635,0,0,0.22049635,9.9666101,3.9438138)"
       style="fill:#f9f9f9"><g
         clip-path="url(#SVGXv8lpc2Y-0)"
         id="g1"
         style="fill:#f9f9f9"><path
           fill="currentColor"
           d="m 16.63,16.563 c 0.885,-0.092 1.557,-0.863 1.527,-1.788 a 1.723,1.723 0 0 0 -1.71,-1.665 h -0.062 c -0.947,0.03 -1.68,0.832 -1.65,1.788 0.032,0.463 0.215,0.863 0.49,1.14 -1.039,2.067 -2.627,3.577 -5.01,4.841 C 8.597,21.743 6.917,22.051 5.238,21.835 3.863,21.65 2.794,21.033 2.122,20.016 1.145,18.506 1.054,16.871 1.878,15.237 2.458,14.066 3.375,13.202 3.955,12.771 A 17,17 0 0 1 3.558,11.198 c -4.429,3.238 -3.97,7.616 -2.628,9.682 1.008,1.542 3.054,2.498 5.315,2.498 a 7.5,7.5 0 0 0 1.832,-0.216 c 3.91,-0.77 6.872,-3.114 8.552,-6.598 m 5.375,-3.823 C 19.683,9.997 16.262,8.486 12.353,8.486 H 11.864 A 1.68,1.68 0 0 0 10.368,7.561 H 10.306 C 9.36,7.592 8.626,8.394 8.657,9.35 c 0.03,0.925 0.794,1.664 1.71,1.664 h 0.062 a 1.72,1.72 0 0 0 1.496,-1.048 h 0.55 c 2.321,0 4.52,0.678 6.505,2.004 1.527,1.018 2.627,2.343 3.237,3.947 0.52,1.294 0.49,2.558 -0.06,3.638 -0.856,1.634 -2.291,2.528 -4.185,2.528 -1.221,0 -2.382,-0.37 -2.993,-0.648 a 18,18 0 0 1 -1.374,1.11 c 1.313,0.617 2.657,0.956 3.94,0.956 2.932,0 5.1,-1.634 5.925,-3.268 0.885,-1.788 0.824,-4.871 -1.466,-7.492 M 6.49,17.087 c 0.03,0.925 0.794,1.665 1.71,1.665 h 0.061 c 0.947,-0.03 1.68,-0.832 1.65,-1.788 A 1.723,1.723 0 0 0 8.201,15.299 H 8.139 a 0.5,0.5 0 0 0 -0.214,0.03 C 6.673,13.233 6.154,10.952 6.337,8.485 6.459,6.635 7.07,5.032 8.139,3.706 9.025,2.566 10.735,2.011 11.896,1.98 15.133,1.918 16.507,5.988 16.599,7.622 16.996,7.714 17.668,7.93 18.126,8.084 17.759,3.09 14.706,0.5 11.773,0.5 9.025,0.5 6.49,2.504 5.482,5.464 4.077,9.41 4.993,13.202 6.704,16.193 6.551,16.409 6.459,16.748 6.49,17.087"
           id="path1"
           style="fill:#f9f9f9" /></g><defs
         id="defs2" /></g></g></svg>
