<?xml version="1.0" encoding="UTF-8" standalone="no"?>
<!-- Created with Inkscape (http://www.inkscape.org/) -->

<svg
   width="29.084694"
   height="29.084694"
   viewBox="0 0 7.6953251 7.6953252"
   version="1.1"
   id="svg1"
   xml:space="preserve"
   xmlns:xlink="http://www.w3.org/1999/xlink"
   xmlns="http://www.w3.org/2000/svg"
   xmlns:svg="http://www.w3.org/2000/svg"><defs
     id="defs1"><linearGradient
       id="linearGradient1"><stop
         style="stop-color:#16a2ff;stop-opacity:1;"
         offset="0"
         id="stop1" /><stop
         style="stop-color:#bf2bff;stop-opacity:1;"
         offset="1"
         id="stop2" /></linearGradient><linearGradient
       xlink:href="#linearGradient1"
       id="linearGradient2"
       x1="8.8412809"
       y1="6.5576329"
       x2="16.383606"
       y2="6.5576329"
       gradientUnits="userSpaceOnUse"
       gradientTransform="translate(0,0.03224761)" /><clipPath
       id="SVGXv8lpc2Y-06"><path
         fill="#ffffff"
         d="M 0,0 H 24 V 24 H 0 Z"
         id="path2-2" /></clipPath></defs><g
     id="layer1"
     transform="translate(-8.7647811,-2.7422178)"><rect
       style="fill:url(#linearGradient2);stroke:#b3b3b3;stroke-width:0.153;stroke-dasharray:none;stroke-opacity:1"
       id="rect1"
       width="7.542325"
       height="7.542325"
       x="8.8412809"
       y="2.8187177"
       ry="0.8308841" /><g
       fill="none"
       id="g2"
       transform="matrix(0.23151041,0,0,0.23151041,9.8343185,3.8117553)"
       style="fill:#f9f9f9"><g
         clip-path="url(#SVGXv8lpc2Y-06)"
         id="g1"
         style="fill:#f9f9f9"><path
           fill="currentColor"
           d="M 12,0 C 18.6,0 24,5.4 24,12 24,18.6 18.6,24 12,24 5.4,24 0,18.6 0,12 0,5.4 5.4,0 12,0 M 9.6,15.975 q 0.225,1.012 0,1.8 L 9.525,18 c 0,0.075 -0.075,0.15 -0.075,0.15 -0.15,0.3 -0.3,0.525 -0.525,0.825 -0.675,0.75 -1.65,1.05 -2.1,0.825 -0.45,-0.225 -0.225,-1.35 0.6,-2.175 0.9,-0.9 2.1,-1.5 2.1,-1.5 z M 19.5,5.1 C 18.975,3 15.45,2.25 12.075,3.45 10.125,4.2 7.95,5.325 6.375,6.75 4.5,8.475 4.275,9.975 4.35,10.575 4.8,12.75 7.8,14.25 9.075,15.3 8.7,15.45 6,16.8 5.4,18.225 c -0.675,1.5 0.075,2.55 0.6,2.625 1.575,0.45 3.225,-0.375 4.05,-1.65 0.825,-1.275 0.75,-2.85 0.375,-3.675 a 3.53,3.53 0 0 1 1.8,-0.075 c 2.1,0.225 2.55,1.575 2.4,2.1 -0.15,0.525 -0.525,0.825 -0.675,0.975 -0.15,0.075 -0.225,0.15 -0.15,0.15 0,0.075 0.075,0.075 0.225,0.075 0.15,0 1.125,-0.45 1.125,-1.5 0.075,-1.275 -1.2,-2.7 -3.375,-2.7 -0.9,0 -1.5,0.075 -1.875,0.225 C 9.9,14.7 9.825,14.7 9.825,14.7 8.475,13.275 6,12.225 6.075,10.275 c 0,-0.675 0.3,-2.55 4.8,-4.8 3.675,-1.875 6.675,-1.35 7.2,-0.225 0.75,1.575 -1.575,4.575 -5.4,5.025 -1.5,0.15 -2.25,-0.375 -2.4,-0.6 C 10.05,9.45 10.05,9.45 9.975,9.45 c -0.15,0.075 -0.075,0.225 0,0.375 0.15,0.3 0.6,0.825 1.425,1.125 0.675,0.225 2.4,0.375 4.5,-0.45 2.325,-0.9 4.125,-3.375 3.6,-5.475 z"
           id="path1"
           style="fill:#f9f9f9" /></g><defs
         id="defs2" /></g></g></svg>
