<?xml version="1.0" encoding="UTF-8" standalone="no"?>
<!-- Created with Inkscape (http://www.inkscape.org/) -->

<svg
   width="29.084694"
   height="29.084694"
   viewBox="0 0 7.6953251 7.6953252"
   version="1.1"
   id="svg1"
   xml:space="preserve"
   xmlns:xlink="http://www.w3.org/1999/xlink"
   xmlns="http://www.w3.org/2000/svg"
   xmlns:svg="http://www.w3.org/2000/svg"><defs
     id="defs1"><linearGradient
       id="linearGradient1"><stop
         style="stop-color:#16a2ff;stop-opacity:1;"
         offset="0"
         id="stop1" /><stop
         style="stop-color:#bf2bff;stop-opacity:1;"
         offset="1"
         id="stop2" /></linearGradient><linearGradient
       xlink:href="#linearGradient1"
       id="linearGradient2"
       x1="8.8412809"
       y1="6.5576329"
       x2="16.383606"
       y2="6.5576329"
       gradientUnits="userSpaceOnUse"
       gradientTransform="translate(0,0.03224761)" /></defs><g
     id="layer1"
     transform="translate(-8.7647811,-2.7422178)"><rect
       style="fill:url(#linearGradient2);stroke:#b3b3b3;stroke-width:0.153;stroke-dasharray:none;stroke-opacity:1"
       id="rect1"
       width="7.542325"
       height="7.542325"
       x="8.8412809"
       y="2.8187177"
       ry="0.8308841" /><path
       fill="currentColor"
       d="m 10.214657,3.9440469 c -0.137363,0 -0.2480471,0.110684 -0.2480471,0.2480469 v 4.7955728 c 0,0.1373628 0.1106801,0.2480469 0.2480471,0.2480469 h 4.795573 c 0.137363,0 0.248047,-0.110684 0.248047,-0.2480469 V 4.1920938 c 0,-0.1373629 -0.11068,-0.2480469 -0.248047,-0.2480469 z m 3.8283,2.1497396 q 0.202406,0 0.35873,0.024473 a 1.4111111,1.4111111 0 0 1 0.287956,0.074965 V 6.7351799 A 0.88194443,0.88194443 0 0 0 14.54787,6.6555839 1.1024305,1.1024305 0 0 0 14.389782,6.5982569 1.2126736,1.2126736 0 0 0 14.075369,6.5541599 q -0.09921,0 -0.180579,0.018961 a 0.46302082,0.46302082 0 0 0 -0.137363,0.053357 q -0.056,0.034396 -0.08665,0.082461 a 0.19843749,0.19843749 0 0 0 -0.03087,0.1080386 q 0,0.064823 0.0344,0.1166374 0.0344,0.051593 0.09768,0.097896 c 0.06328,0.046303 0.09327,0.060855 0.153459,0.0904 q 0.0904,0.044759 0.204169,0.091723 0.155443,0.065264 0.279136,0.1384652 0.123694,0.073421 0.212328,0.1660262 0.08864,0.092163 0.135379,0.2110052 0.04696,0.1186213 0.04719,0.276269 0,0.2173994 -0.08224,0.365125 A 0.66145831,0.66145831 0 0 1 14.498276,8.6097512 0.97013887,0.97013887 0 0 1 14.170413,8.7411606 Q 13.983,8.7808486 13.775742,8.7808486 a 2.204861,2.204861 0 0 1 -0.405693,-0.03616 1.2126736,1.2126736 0 0 1 -0.333376,-0.1087 V 8.0561127 a 1.1090451,1.1090451 0 0 0 0.713713,0.2645834 q 0.11024,0 0.192264,-0.019844 0.08224,-0.019844 0.137363,-0.055121 0.05491,-0.035719 0.08224,-0.083785 a 0.22489582,0.22489582 0 0 0 -0.01633,-0.2401087 0.46302082,0.46302082 0 0 0 -0.1184,-0.1102426 1.2347222,1.2347222 0 0 0 -0.177934,-0.097896 6.173611,6.173611 0 0 0 -0.222029,-0.096132 q -0.303609,-0.12678 -0.452657,-0.309783 -0.14905,-0.1830034 -0.14905,-0.4420746 0,-0.2028472 0.08136,-0.3488091 0.08113,-0.1459619 0.221368,-0.2401093 A 0.99218748,0.99218748 0 0 1 13.652696,6.138105 1.6536458,1.6536458 0 0 1 14.042956,6.093788 M 10.710749,6.13524 h 2.10851 V 6.6128107 H 12.062551 V 8.7396196 H 11.46349 V 6.6128107 h -0.75274 z"
       id="path1"
       style="fill:#f9f9f9;stroke-width:0.220487" /></g></svg>
